<?xml version="1.0" encoding="UTF-8" standalone="no"?><svg xmlns="http://www.w3.org/2000/svg" xmlns:xlink="http://www.w3.org/1999/xlink" contentScriptType="text/ecmascript" fill="#000000" width="256" zoomAndPan="magnify" contentStyleType="text/css" viewBox="0.0 0.0 256.0 220.5" height="220.5" preserveAspectRatio="xMidYMid meet" version="1"><g id="change1_1"><path fill="#ffd57f" d="M157.8,173.9c-10.6,27.2-37.1,46.6-68.2,46.6c-40.4,0-73.2-32.6-73.2-73s32.8-73.2,73.2-73.2 c2.7,0,5.2,0.1,7.8,0.4c-26.2,6.7-45.6,30.5-45.6,58.8c0,33.5,27.1,60.7,60.7,60.7C130.5,194.2,146.7,186.4,157.8,173.9z M139.4,137.5l6-7.9l9.9,0.4l-5.7-8.1l3.5-9.3l-9.5,2.9l-7.8-6.2l-0.2,9.9l-8.3,5.5l9.4,3.2L139.4,137.5z M204.1,190.5l-4.2,4.6 l-6.1-0.9l3,5.4l-2.5,5.5l6-1.2l4.4,4.3l0.7-6.1l5.4-2.9l-5.6-2.6L204.1,190.5z M186.2,162.2l-2.1-2.4l-0.6,3.1l-2.9,1.3l2.8,1.5 l0.2,3.1l2.3-2.1l3.1,0.7l-1.3-2.9l1.6-2.7L186.2,162.2z M172.1,74.2l-1.8-5.1l-3,4.5l-5.4,0.1l3.4,4.2l-1.7,5.2l5.1-1.9l4.5,3.1 l-0.2-5.4l4.3-3.3L172.1,74.2z M256,187.1l-3.8,0.5l-2.5-2.9l-0.7,3.7l-3.5,1.5l3.3,1.9l0.4,3.9l2.8-2.6l3.7,0.8l-1.6-3.5L256,187.1 z M158.1,208.5l-1.8-5.1l-3,4.5l-5.4,0.1l3.3,4.2l-1.6,5.2l5.1-1.9l4.5,3.1l-0.2-5.4l4.3-3.3L158.1,208.5z M195.8,89l4.5-1.4 l3.8,2.9v-4.8l4-2.7l-4.5-1.5l-1.3-4.6l-2.8,3.8l-4.8-0.2l2.8,3.9L195.8,89z M208.2,128l-5.3-6l-1.5,7.9l-7.4,3.2l7,3.9l0.8,8 l5.9-5.5l7.8,1.7l-3.4-7.3l4.1-6.9L208.2,128z M4,89.9l0.7,4.3l2.1-3.7l4.2,0.1L7.9,88l1.5-2.8l-3.3,1.2l-2.7-2.3l0.4,3.1L0,88.6 L4,89.9z M12.4,183.2l-4.3,2.2l-4-2.8v0.1l1.3,4.6l-3.5,3.4l4.6-0.5l1.1,3.4l1.7-3.7l4.1-0.4l-2.9-2.1L12.4,183.2z M141.5,59.2 l0.7,4.2v-0.1l2.1-3.6l4.2,0.1l-3.1-2.6l1.5-2.8l-3.3,1.2l-2.7-2.3l0.4,3.1l-3.8,1.4L141.5,59.2z M54.7,55.1l5.1-1.9l4.4,3.1 L64,50.9l4.3-3.3l-5.2-1.4l-1.8-5.1l-3,4.5l-5.4,0.1l3.4,4.2L54.7,55.1z M98.2,23l5.9-5.5l7.8,1.7l-3.4-7.3l4.1-6.9l-8,1l-5.3-6 l-1.5,7.9l-7.4,3.2l7,3.9L98.2,23z"/></g></svg>