<?xml version="1.0" encoding="UTF-8" standalone="no"?><svg xmlns="http://www.w3.org/2000/svg" xmlns:xlink="http://www.w3.org/1999/xlink" contentScriptType="text/ecmascript" fill="#000000" width="860.3" zoomAndPan="magnify" contentStyleType="text/css" viewBox="413.2 236.9 860.3 2114.7" height="2114.7" preserveAspectRatio="xMidYMid meet" version="1"><g><g><path fill="#c5c4c4" d="M 1273.199219 871.429688 C 1273.179688 870.410156 1273.148438 869.378906 1273.109375 868.359375 C 1272.960938 863.558594 1272.75 858.691406 1272.46875 853.738281 C 1272.441406 853.070312 1272.390625 852.371094 1272.351562 851.691406 C 1272.070312 846.980469 1271.730469 842.199219 1271.359375 837.359375 C 1271.300781 836.648438 1271.261719 835.949219 1271.199219 835.230469 C 1270.769531 829.960938 1270.28125 824.601562 1269.730469 819.179688 C 1269.660156 818.410156 1269.570312 817.621094 1269.5 816.839844 C 1268.328125 805.558594 1266.949219 794.011719 1265.339844 782.238281 C 1265.269531 781.710938 1265.191406 781.179688 1265.121094 780.640625 C 1263.441406 768.429688 1261.539062 755.988281 1259.441406 743.390625 C 1259.449219 743.308594 1259.511719 743.210938 1259.511719 743.121094 C 1259.511719 742.71875 1259.328125 742.320312 1259.199219 741.921875 C 1224.289062 533.269531 1137.179688 280.210938 1137.179688 280.210938 C 1137.179688 280.210938 1133.910156 266 1120.210938 260.101562 C 1099.339844 251.121094 1053.730469 245.609375 1007.429688 242.230469 C 1007.429688 242.21875 1007.429688 242.21875 1007.429688 242.21875 C 1007.140625 242.191406 1006.851562 242.179688 1006.558594 242.160156 C 994.90625 241.320312 983.242188 240.589844 971.894531 240 C 971.382812 239.96875 970.875 239.949219 970.363281 239.921875 C 965.417969 239.660156 960.554688 239.429688 955.78125 239.210938 C 954.8125 239.171875 953.84375 239.121094 952.878906 239.070312 C 947.726562 238.851562 942.648438 238.640625 937.796875 238.460938 C 937.605469 238.449219 937.417969 238.441406 937.230469 238.441406 C 934.316406 238.320312 931.457031 238.230469 928.675781 238.128906 C 925.378906 238.019531 922.1875 237.921875 919.101562 237.820312 C 918.429688 237.800781 917.792969 237.78125 917.125 237.769531 C 914.867188 237.691406 912.699219 237.628906 910.582031 237.570312 C 909.863281 237.558594 909.070312 237.53125 908.367188 237.519531 C 887.960938 236.980469 874.703125 236.878906 874.703125 236.878906 C 874.703125 236.878906 855.058594 237.089844 826.792969 238.019531 C 826.792969 238.019531 826.796875 238.019531 826.796875 238.011719 C 825.316406 238.070312 823.742188 238.121094 822.21875 238.171875 C 821.824219 238.179688 821.421875 238.191406 821.019531 238.210938 C 818.460938 238.300781 815.855469 238.390625 813.1875 238.5 C 812.269531 238.53125 811.355469 238.570312 810.425781 238.609375 C 808.050781 238.699219 805.664062 238.800781 803.21875 238.898438 C 802 238.941406 800.761719 239 799.527344 239.050781 C 797.238281 239.148438 794.957031 239.25 792.625 239.359375 C 791.125 239.429688 789.589844 239.5 788.070312 239.578125 C 785.917969 239.679688 783.78125 239.78125 781.601562 239.890625 C 779.734375 239.980469 777.84375 240.089844 775.957031 240.191406 C 774.054688 240.28125 772.171875 240.390625 770.25 240.488281 C 766.746094 240.691406 763.226562 240.898438 759.691406 241.109375 C 758.871094 241.171875 758.054688 241.21875 757.230469 241.269531 C 753.835938 241.488281 750.441406 241.699219 747.042969 241.929688 C 745.742188 242.019531 744.449219 242.121094 743.15625 242.210938 C 740.515625 242.398438 737.875 242.589844 735.246094 242.789062 C 733.796875 242.910156 732.367188 243.019531 730.925781 243.128906 C 728.472656 243.328125 726.019531 243.519531 723.585938 243.738281 C 722.070312 243.859375 720.5625 244 719.054688 244.128906 C 716.722656 244.351562 714.394531 244.550781 712.089844 244.769531 C 710.566406 244.921875 709.058594 245.070312 707.546875 245.210938 C 705.296875 245.441406 703.054688 245.671875 700.847656 245.910156 C 699.371094 246.070312 697.914062 246.230469 696.460938 246.390625 C 694.246094 246.640625 692.0625 246.890625 689.898438 247.160156 C 688.515625 247.320312 687.144531 247.5 685.785156 247.671875 C 683.617188 247.941406 681.507812 248.230469 679.410156 248.519531 C 678.136719 248.699219 676.859375 248.871094 675.613281 249.050781 C 673.46875 249.359375 671.394531 249.691406 669.332031 250.019531 C 668.238281 250.191406 667.121094 250.371094 666.054688 250.539062 C 663.859375 250.910156 661.761719 251.289062 659.691406 251.679688 C 658.851562 251.839844 657.976562 251.988281 657.15625 252.148438 C 654.542969 252.660156 652.054688 253.191406 649.679688 253.738281 C 649.492188 253.78125 649.277344 253.820312 649.097656 253.859375 L 649.097656 253.871094 C 636.824219 256.71875 627.84375 260.039062 623.863281 263.929688 C 613.941406 273.570312 612.230469 280.210938 612.230469 280.210938 C 612.230469 280.210938 525.113281 533.289062 490.207031 741.960938 C 490.082031 742.339844 489.898438 742.730469 489.898438 743.121094 C 489.898438 743.210938 489.964844 743.300781 489.96875 743.390625 C 489.941406 743.589844 489.910156 743.78125 489.875 743.988281 C 487.808594 756.429688 485.929688 768.71875 484.269531 780.78125 C 484.207031 781.21875 484.144531 781.660156 484.089844 782.101562 C 482.472656 793.941406 481.070312 805.550781 479.90625 816.890625 C 479.832031 817.640625 479.753906 818.398438 479.671875 819.148438 C 479.128906 824.578125 478.636719 829.960938 478.207031 835.269531 C 478.148438 835.949219 478.101562 836.628906 478.046875 837.320312 C 477.664062 842.171875 477.335938 846.96875 477.054688 851.699219 C 477.019531 852.378906 476.972656 853.070312 476.929688 853.738281 C 476.652344 858.691406 476.453125 863.558594 476.292969 868.359375 C 476.257812 869.378906 476.226562 870.410156 476.203125 871.429688 C 476.074219 876.28125 475.980469 881.070312 475.980469 885.75 C 475.980469 893.53125 476.210938 901.089844 476.558594 908.539062 C 476.664062 910.78125 476.816406 912.980469 476.953125 915.179688 C 477.277344 920.53125 477.691406 925.800781 478.195312 930.960938 C 478.402344 933.160156 478.609375 935.359375 478.851562 937.53125 C 479.542969 943.671875 480.339844 949.691406 481.261719 955.578125 C 481.390625 956.410156 481.484375 957.269531 481.621094 958.089844 C 482.707031 964.75 483.984375 971.230469 485.359375 977.578125 C 485.757812 979.371094 486.1875 981.121094 486.597656 982.890625 C 487.675781 987.539062 488.828125 992.101562 490.058594 996.578125 C 490.578125 998.480469 491.097656 1000.378906 491.648438 1002.238281 C 493.066406 1007.109375 494.570312 1011.871094 496.160156 1016.539062 C 496.527344 1017.609375 496.863281 1018.730469 497.238281 1019.800781 C 499.226562 1025.460938 501.347656 1030.980469 503.570312 1036.359375 C 504.132812 1037.71875 504.734375 1039.039062 505.3125 1040.378906 C 507.054688 1044.441406 508.851562 1048.429688 510.71875 1052.339844 C 511.480469 1053.929688 512.25 1055.519531 513.035156 1057.089844 C 514.996094 1061.03125 517.015625 1064.890625 519.101562 1068.671875 C 519.707031 1069.761719 520.277344 1070.878906 520.894531 1071.960938 C 523.59375 1076.75 526.386719 1081.398438 529.269531 1085.941406 C 529.867188 1086.878906 530.5 1087.78125 531.101562 1088.71875 C 533.449219 1092.308594 535.828125 1095.839844 538.269531 1099.28125 C 539.203125 1100.589844 540.140625 1101.890625 541.082031 1103.179688 C 543.4375 1106.410156 545.84375 1109.570312 548.285156 1112.660156 C 549.082031 1113.671875 549.847656 1114.691406 550.652344 1115.679688 C 553.890625 1119.691406 557.179688 1123.609375 560.539062 1127.398438 C 561.003906 1127.921875 561.476562 1128.410156 561.945312 1128.929688 C 564.855469 1132.191406 567.816406 1135.359375 570.804688 1138.460938 C 571.816406 1139.511719 572.84375 1140.539062 573.859375 1141.570312 C 576.496094 1144.230469 579.15625 1146.839844 581.832031 1149.390625 C 582.765625 1150.269531 583.679688 1151.179688 584.621094 1152.050781 C 588.195312 1155.378906 591.796875 1158.640625 595.429688 1161.789062 C 595.445312 1161.800781 595.46875 1161.820312 595.480469 1161.828125 C 595.480469 1161.839844 595.484375 1161.839844 595.484375 1161.839844 C 619.355469 1182.488281 644.339844 1199.230469 667.9375 1213.460938 C 667.9375 1213.460938 667.945312 1213.460938 667.945312 1213.46875 C 668.027344 1213.519531 668.109375 1213.558594 668.1875 1213.609375 C 672.476562 1216.199219 676.710938 1218.679688 680.898438 1221.121094 C 681.53125 1221.480469 682.164062 1221.851562 682.796875 1222.21875 C 686.902344 1224.589844 690.96875 1226.910156 694.933594 1229.160156 C 699.28125 1231.609375 703.417969 1234.128906 707.570312 1236.640625 C 709.792969 1238 711.90625 1239.371094 714.082031 1240.730469 C 714.253906 1240.851562 714.421875 1240.949219 714.59375 1241.070312 C 716.460938 1242.269531 718.3125 1243.46875 720.117188 1244.699219 C 720.953125 1245.25 721.753906 1245.800781 722.570312 1246.359375 C 724.367188 1247.589844 726.140625 1248.820312 727.882812 1250.050781 C 728.640625 1250.589844 729.390625 1251.128906 730.132812 1251.660156 C 731.90625 1252.941406 733.65625 1254.210938 735.367188 1255.488281 C 736.011719 1255.96875 736.648438 1256.460938 737.292969 1256.941406 C 739.109375 1258.308594 740.886719 1259.679688 742.636719 1261.058594 C 743.121094 1261.441406 743.605469 1261.828125 744.082031 1262.210938 C 746.039062 1263.761719 747.953125 1265.308594 749.820312 1266.859375 C 750.050781 1267.050781 750.28125 1267.230469 750.5 1267.421875 C 752.625 1269.199219 754.707031 1270.960938 756.726562 1272.71875 C 801.132812 1311.449219 819.390625 1346.691406 819.390625 1346.691406 L 819.390625 2013.171875 C 819.390625 2017.179688 819.160156 2021.160156 818.773438 2025.078125 C 818.644531 2026.378906 818.414062 2027.648438 818.25 2028.929688 C 817.902344 2031.550781 817.539062 2034.171875 817.03125 2036.75 C 816.742188 2038.230469 816.371094 2039.699219 816.027344 2041.171875 C 815.476562 2043.519531 814.90625 2045.859375 814.226562 2048.171875 C 813.78125 2049.691406 813.296875 2051.191406 812.800781 2052.699219 C 812.0625 2054.929688 811.265625 2057.140625 810.410156 2059.339844 C 809.835938 2060.820312 809.246094 2062.300781 808.625 2063.78125 C 807.679688 2065.988281 806.664062 2068.171875 805.605469 2070.351562 C 804.933594 2071.730469 804.28125 2073.140625 803.5625 2074.511719 C 802.363281 2076.820312 801.066406 2079.089844 799.75 2081.359375 C 799.058594 2082.539062 798.410156 2083.738281 797.6875 2084.910156 C 795.875 2087.878906 793.949219 2090.789062 791.953125 2093.671875 C 791.648438 2094.109375 791.378906 2094.570312 791.066406 2095.011719 C 788.742188 2098.308594 786.285156 2101.550781 783.738281 2104.75 C 782.875 2105.828125 781.953125 2106.878906 781.074219 2107.949219 C 779.324219 2110.070312 777.570312 2112.179688 775.734375 2114.261719 C 774.628906 2115.511719 773.46875 2116.730469 772.335938 2117.96875 C 770.632812 2119.808594 768.921875 2121.648438 767.160156 2123.460938 C 765.914062 2124.738281 764.644531 2126 763.367188 2127.261719 C 761.625 2128.980469 759.851562 2130.699219 758.054688 2132.390625 C 756.738281 2133.640625 755.402344 2134.871094 754.054688 2136.101562 C 752.207031 2137.789062 750.328125 2139.441406 748.429688 2141.078125 C 747.089844 2142.238281 745.761719 2143.410156 744.394531 2144.558594 C 742.359375 2146.28125 740.285156 2147.96875 738.203125 2149.648438 C 736.945312 2150.648438 735.703125 2151.679688 734.433594 2152.679688 C 731.804688 2154.738281 729.148438 2156.75 726.46875 2158.761719 C 725.714844 2159.320312 724.980469 2159.898438 724.230469 2160.460938 C 724.179688 2160.5 724.125 2160.539062 724.066406 2160.578125 C 658.246094 2209 580.101562 2237.800781 565.867188 2242.660156 C 540.515625 2251.289062 528.988281 2273.960938 528.988281 2273.960938 L 528.988281 2304.601562 C 618.871094 2335.429688 874.703125 2335.429688 874.703125 2335.429688 C 874.703125 2335.429688 1075.730469 2335.429688 1183.988281 2313.941406 C 1183.988281 2313.941406 1183.988281 2313.941406 1184 2313.941406 C 1187.441406 2313.261719 1190.800781 2312.550781 1194.050781 2311.820312 C 1194.070312 2311.808594 1194.101562 2311.800781 1194.128906 2311.800781 C 1197.300781 2311.089844 1200.359375 2310.359375 1203.308594 2309.609375 C 1203.511719 2309.558594 1203.710938 2309.511719 1203.898438 2309.460938 C 1206.75 2308.730469 1209.5 2307.980469 1212.128906 2307.210938 C 1212.371094 2307.140625 1212.589844 2307.070312 1212.820312 2307.011719 C 1215.460938 2306.21875 1218.011719 2305.421875 1220.421875 2304.601562 L 1220.421875 2273.960938 C 1220.421875 2273.960938 1208.890625 2251.289062 1183.539062 2242.660156 C 1182.820312 2242.421875 1181.890625 2242.089844 1180.878906 2241.730469 C 1180.691406 2241.660156 1180.539062 2241.601562 1180.339844 2241.539062 C 1179.820312 2241.359375 1179.160156 2241.109375 1178.558594 2240.890625 C 1178.019531 2240.691406 1177.53125 2240.519531 1176.941406 2240.300781 C 1176.648438 2240.199219 1176.371094 2240.101562 1176.070312 2240 C 1176.039062 2239.980469 1175.988281 2239.960938 1175.941406 2239.941406 C 1174.941406 2239.570312 1173.808594 2239.140625 1172.679688 2238.710938 C 1172.339844 2238.578125 1172.050781 2238.480469 1171.710938 2238.351562 C 1171.410156 2238.238281 1171.101562 2238.121094 1170.789062 2238 C 1169.789062 2237.621094 1168.679688 2237.199219 1167.601562 2236.769531 C 1166.851562 2236.480469 1166.160156 2236.210938 1165.359375 2235.898438 C 1165.179688 2235.820312 1164.980469 2235.738281 1164.789062 2235.671875 C 1163.769531 2235.269531 1162.679688 2234.828125 1161.628906 2234.398438 C 1160.46875 2233.949219 1159.378906 2233.511719 1158.171875 2233.019531 C 1157.058594 2232.570312 1155.839844 2232.050781 1154.660156 2231.570312 C 1153.359375 2231.039062 1152.089844 2230.511719 1150.71875 2229.929688 C 1150.460938 2229.828125 1150.191406 2229.710938 1149.929688 2229.601562 C 1148.949219 2229.191406 1147.929688 2228.75 1146.941406 2228.320312 C 1145.371094 2227.648438 1143.820312 2226.980469 1142.191406 2226.28125 C 1141.878906 2226.140625 1141.578125 2226.011719 1141.28125 2225.878906 C 1140.351562 2225.46875 1139.371094 2225.03125 1138.421875 2224.609375 C 1136.550781 2223.789062 1134.699219 2222.96875 1132.761719 2222.089844 C 1132.390625 2221.929688 1132.039062 2221.761719 1131.679688 2221.589844 C 1130.808594 2221.199219 1129.929688 2220.789062 1129.050781 2220.378906 C 1126.960938 2219.421875 1124.871094 2218.460938 1122.710938 2217.449219 C 1122.699219 2217.441406 1122.679688 2217.441406 1122.660156 2217.429688 C 1122.628906 2217.398438 1122.578125 2217.390625 1122.539062 2217.371094 C 1121.429688 2216.851562 1120.289062 2216.289062 1119.171875 2215.75 C 1116.949219 2214.679688 1114.71875 2213.628906 1112.449219 2212.511719 C 1111.261719 2211.929688 1110.019531 2211.300781 1108.808594 2210.699219 C 1106.488281 2209.539062 1104.160156 2208.390625 1101.78125 2207.160156 C 1100.550781 2206.53125 1099.300781 2205.871094 1098.058594 2205.230469 C 1095.660156 2203.980469 1093.261719 2202.730469 1090.820312 2201.429688 C 1089.539062 2200.738281 1088.238281 2200.019531 1086.949219 2199.320312 C 1084.519531 2197.988281 1082.089844 2196.660156 1079.628906 2195.289062 C 1078.300781 2194.539062 1076.980469 2193.769531 1075.648438 2193.011719 C 1073.199219 2191.609375 1070.738281 2190.210938 1068.269531 2188.761719 C 1066.910156 2187.960938 1065.550781 2187.121094 1064.179688 2186.300781 C 1061.761719 2184.839844 1059.320312 2183.371094 1056.890625 2181.851562 C 1055.46875 2180.96875 1054.070312 2180.058594 1052.648438 2179.160156 C 1050.261719 2177.648438 1047.871094 2176.121094 1045.480469 2174.550781 C 1042.558594 2172.640625 1039.640625 2170.691406 1036.75 2168.691406 C 1036.121094 2168.261719 1035.5 2167.808594 1034.871094 2167.378906 C 1007.289062 2148.160156 981.261719 2125.539062 962.003906 2099.878906 C 960.75 2098.199219 959.433594 2096.570312 958.238281 2094.871094 C 957.128906 2093.28125 956.140625 2091.660156 955.082031 2090.050781 C 953.785156 2088.089844 952.4375 2086.140625 951.21875 2084.160156 C 950.132812 2082.359375 949.1875 2080.511719 948.164062 2078.679688 C 947.136719 2076.828125 946.027344 2075.011719 945.074219 2073.128906 C 943.941406 2070.898438 942.976562 2068.609375 941.960938 2066.339844 C 941.277344 2064.808594 940.496094 2063.320312 939.863281 2061.769531 C 938.777344 2059.109375 937.890625 2056.410156 936.976562 2053.710938 C 936.5625 2052.5 936.046875 2051.308594 935.675781 2050.089844 C 934.808594 2047.261719 934.144531 2044.398438 933.472656 2041.519531 C 933.199219 2040.378906 932.828125 2039.25 932.585938 2038.089844 C 931.964844 2035.070312 931.5625 2032.011719 931.160156 2028.941406 C 931.027344 2027.878906 930.785156 2026.839844 930.671875 2025.78125 C 930.238281 2021.628906 930.019531 2017.421875 930.019531 2013.171875 L 930.019531 1346.691406 C 930.019531 1346.691406 930.140625 1346.460938 930.347656 1346.070312 C 930.359375 1346.050781 930.351562 1346.050781 930.371094 1346.03125 C 930.59375 1345.609375 930.941406 1345 931.390625 1344.210938 C 931.410156 1344.179688 931.414062 1344.160156 931.433594 1344.140625 C 931.898438 1343.339844 932.480469 1342.351562 933.175781 1341.199219 C 933.199219 1341.171875 933.210938 1341.140625 933.230469 1341.121094 C 942.628906 1325.71875 973.261719 1281.140625 1033.71875 1241.761719 C 1040.300781 1237.488281 1047.191406 1233.269531 1054.46875 1229.160156 C 1064.160156 1223.691406 1074.300781 1217.828125 1084.679688 1211.5 L 1084.691406 1211.5 C 1084.871094 1211.378906 1085.050781 1211.269531 1085.230469 1211.171875 C 1087.589844 1209.71875 1089.96875 1208.25 1092.359375 1206.75 C 1092.789062 1206.46875 1093.230469 1206.191406 1093.679688 1205.910156 C 1096.019531 1204.441406 1098.378906 1202.929688 1100.75 1201.410156 C 1101.128906 1201.160156 1101.511719 1200.898438 1101.890625 1200.648438 C 1111.71875 1194.238281 1121.640625 1187.351562 1131.53125 1179.890625 C 1132.519531 1179.140625 1133.519531 1178.398438 1134.519531 1177.628906 C 1136.21875 1176.320312 1137.910156 1174.980469 1139.609375 1173.640625 C 1140.839844 1172.660156 1142.070312 1171.691406 1143.289062 1170.699219 C 1144.878906 1169.421875 1146.460938 1168.101562 1148.050781 1166.78125 C 1149.378906 1165.671875 1150.710938 1164.558594 1152.039062 1163.429688 C 1153.550781 1162.128906 1155.039062 1160.828125 1156.539062 1159.511719 C 1157.929688 1158.289062 1159.320312 1157.039062 1160.710938 1155.78125 C 1162.140625 1154.480469 1163.570312 1153.179688 1165 1151.851562 C 1166.449219 1150.488281 1167.890625 1149.109375 1169.320312 1147.730469 C 1170.671875 1146.421875 1172.019531 1145.128906 1173.351562 1143.800781 C 1174.890625 1142.28125 1176.410156 1140.710938 1177.929688 1139.140625 C 1179.148438 1137.878906 1180.371094 1136.648438 1181.570312 1135.378906 C 1183.378906 1133.449219 1185.160156 1131.46875 1186.949219 1129.5 C 1187.828125 1128.511719 1188.738281 1127.550781 1189.628906 1126.550781 C 1192.238281 1123.570312 1194.828125 1120.519531 1197.378906 1117.398438 C 1198.140625 1116.480469 1198.871094 1115.511719 1199.621094 1114.570312 C 1201.441406 1112.300781 1203.25 1110.03125 1205.019531 1107.691406 C 1205.960938 1106.449219 1206.878906 1105.160156 1207.800781 1103.898438 C 1209.351562 1101.800781 1210.890625 1099.679688 1212.410156 1097.519531 C 1213.378906 1096.140625 1214.320312 1094.71875 1215.269531 1093.308594 C 1216.699219 1091.191406 1218.128906 1089.050781 1219.519531 1086.871094 C 1220.460938 1085.390625 1221.390625 1083.898438 1222.320312 1082.398438 C 1223.679688 1080.199219 1225.019531 1077.96875 1226.339844 1075.710938 C 1227.230469 1074.179688 1228.121094 1072.628906 1229 1071.070312 C 1230.308594 1068.730469 1231.589844 1066.371094 1232.859375 1063.96875 C 1233.679688 1062.410156 1234.5 1060.871094 1235.300781 1059.289062 C 1236.609375 1056.730469 1237.859375 1054.109375 1239.109375 1051.480469 C 1239.808594 1050 1240.53125 1048.539062 1241.210938 1047.039062 C 1242.609375 1043.960938 1243.949219 1040.808594 1245.28125 1037.640625 C 1245.75 1036.511719 1246.25 1035.410156 1246.710938 1034.28125 C 1248.480469 1029.898438 1250.179688 1025.449219 1251.800781 1020.890625 C 1252 1020.320312 1252.179688 1019.730469 1252.378906 1019.148438 C 1253.761719 1015.191406 1255.101562 1011.160156 1256.359375 1007.058594 C 1256.839844 1005.511719 1257.28125 1003.898438 1257.730469 1002.320312 C 1258.671875 999.140625 1259.589844 995.929688 1260.449219 992.660156 C 1260.941406 990.78125 1261.390625 988.859375 1261.859375 986.941406 C 1262.609375 983.878906 1263.351562 980.789062 1264.03125 977.648438 C 1264.480469 975.589844 1264.890625 973.488281 1265.308594 971.390625 C 1265.929688 968.300781 1266.519531 965.179688 1267.070312 962 C 1267.449219 959.820312 1267.820312 957.621094 1268.171875 955.410156 C 1268.671875 952.191406 1269.128906 948.941406 1269.570312 945.648438 C 1269.859375 943.398438 1270.160156 941.160156 1270.421875 938.890625 C 1270.808594 935.460938 1271.148438 931.960938 1271.46875 928.441406 C 1271.671875 926.230469 1271.890625 924.03125 1272.070312 921.78125 C 1272.359375 917.890625 1272.558594 913.898438 1272.769531 909.910156 C 1272.859375 907.960938 1273 906.050781 1273.070312 904.078125 C 1273.300781 898.070312 1273.429688 891.980469 1273.429688 885.75 C 1273.429688 881.070312 1273.328125 876.28125 1273.199219 871.429688"/></g><g><path fill="#681024" d="M 1241.058594 741.039062 C 1241.058594 741.039062 1254.121094 749.410156 1242.101562 752.128906 C 1181.148438 765.941406 962.28125 785.421875 835.371094 776.410156 C 835.371094 776.410156 1105.960938 759.5 1144.671875 755.601562 C 1196.339844 750.398438 1232.039062 740.269531 1241.058594 741.039062 Z M 566.304688 741 C 580.367188 725.050781 732.042969 726.480469 732.042969 726.480469 C 829.824219 731.328125 561.476562 746.46875 566.304688 741 Z M 795.152344 772.601562 C 809.710938 775.378906 827.394531 777.109375 827.394531 777.109375 C 827.394531 777.109375 729.558594 774.339844 688.4375 773.089844 C 681.152344 772.871094 675.617188 772.691406 672.753906 772.601562 C 672.753906 772.601562 715.746094 771.558594 727.191406 769.820312 C 736.832031 768.359375 768.089844 769.371094 786.414062 771.378906 C 789.835938 771.761719 792.863281 772.171875 795.152344 772.601562 Z M 1273.199219 871.429688 C 1273.179688 870.410156 1273.148438 869.378906 1273.109375 868.359375 C 1272.960938 863.558594 1272.75 858.691406 1272.46875 853.738281 C 1272.441406 853.070312 1272.390625 852.371094 1272.351562 851.691406 C 1272.070312 846.980469 1271.730469 842.199219 1271.359375 837.359375 C 1271.300781 836.648438 1271.261719 835.949219 1271.199219 835.230469 C 1270.769531 829.960938 1270.28125 824.601562 1269.730469 819.179688 C 1269.660156 818.410156 1269.570312 817.621094 1269.5 816.839844 C 1268.328125 805.558594 1266.949219 794.011719 1265.339844 782.238281 C 1265.269531 781.710938 1265.191406 781.179688 1265.121094 780.640625 C 1263.429688 768.429688 1261.53125 755.988281 1259.429688 743.390625 L 1259.441406 743.390625 C 1259.449219 743.308594 1259.511719 743.210938 1259.511719 743.121094 C 1259.511719 742.71875 1259.328125 742.320312 1259.199219 741.921875 C 1259.121094 741.671875 1259.128906 741.421875 1258.988281 741.160156 C 1258.890625 740.96875 1258.660156 740.761719 1258.519531 740.558594 C 1258.21875 740.121094 1257.941406 739.679688 1257.480469 739.230469 C 1257.25 739.011719 1256.890625 738.789062 1256.621094 738.570312 C 1256.109375 738.160156 1255.628906 737.738281 1254.980469 737.320312 C 1254.640625 737.109375 1254.191406 736.898438 1253.800781 736.679688 C 1253.078125 736.269531 1252.378906 735.859375 1251.519531 735.441406 C 1251.109375 735.25 1250.589844 735.058594 1250.140625 734.871094 C 1249.179688 734.441406 1248.230469 734.019531 1247.121094 733.601562 C 1246.671875 733.441406 1246.128906 733.269531 1245.648438 733.089844 C 1244.421875 732.660156 1243.179688 732.21875 1241.800781 731.789062 C 1241.351562 731.648438 1240.839844 731.519531 1240.378906 731.371094 C 1238.839844 730.921875 1237.28125 730.460938 1235.578125 730.011719 C 1235.160156 729.898438 1234.679688 729.789062 1234.25 729.679688 C 1232.410156 729.210938 1230.5 728.730469 1228.480469 728.269531 C 1228.121094 728.191406 1227.71875 728.109375 1227.359375 728.019531 C 1225.171875 727.539062 1222.910156 727.050781 1220.519531 726.570312 C 1220.25 726.511719 1219.949219 726.460938 1219.660156 726.410156 C 1217.121094 725.898438 1214.488281 725.410156 1211.730469 724.921875 C 1211.558594 724.890625 1211.371094 724.851562 1211.199219 724.820312 C 1208.289062 724.308594 1205.289062 723.808594 1202.171875 723.320312 C 1202.070312 723.300781 1201.960938 723.28125 1201.859375 723.269531 C 1198.640625 722.761719 1195.300781 722.25 1191.839844 721.761719 C 1191.800781 721.761719 1191.761719 721.75 1191.730469 721.75 C 1188.480469 721.289062 1185.089844 720.828125 1181.640625 720.378906 C 1180.921875 720.300781 1180.199219 720.199219 1179.46875 720.109375 C 1176.28125 719.710938 1173 719.300781 1169.640625 718.910156 C 1169.339844 718.878906 1169.058594 718.839844 1168.75 718.808594 C 1165.28125 718.398438 1161.738281 718 1158.089844 717.609375 C 1157.71875 717.570312 1157.320312 717.53125 1156.960938 717.5 C 1152.609375 717.039062 1148.171875 716.589844 1143.609375 716.148438 C 1143.570312 716.148438 1143.550781 716.140625 1143.519531 716.140625 C 1123.03125 714.179688 1100.359375 712.441406 1075.828125 710.960938 C 1017.300781 707.429688 948.4375 705.390625 874.703125 705.390625 C 825.363281 705.390625 778.246094 706.320312 734.890625 707.980469 C 651.554688 711.171875 582.363281 717.121094 539.015625 724.691406 C 509.613281 729.820312 492.148438 735.699219 490.207031 741.960938 C 490.082031 742.339844 489.898438 742.730469 489.898438 743.121094 C 489.898438 743.210938 489.964844 743.300781 489.96875 743.390625 C 489.941406 743.589844 489.910156 743.789062 489.875 743.988281 C 487.808594 756.429688 485.929688 768.71875 484.269531 780.78125 C 484.207031 781.21875 484.144531 781.660156 484.089844 782.101562 C 482.472656 793.941406 481.070312 805.550781 479.90625 816.890625 C 479.832031 817.640625 479.753906 818.398438 479.671875 819.148438 C 479.128906 824.578125 478.636719 829.960938 478.207031 835.269531 C 478.148438 835.949219 478.101562 836.628906 478.046875 837.320312 C 477.664062 842.171875 477.335938 846.96875 477.054688 851.699219 C 477.019531 852.378906 476.972656 853.070312 476.929688 853.738281 C 476.652344 858.691406 476.453125 863.558594 476.292969 868.359375 C 476.257812 869.378906 476.226562 870.410156 476.203125 871.429688 C 476.074219 876.28125 475.980469 881.070312 475.980469 885.75 C 475.980469 893.53125 476.210938 901.089844 476.558594 908.539062 C 476.664062 910.78125 476.816406 912.980469 476.953125 915.179688 C 477.277344 920.53125 477.691406 925.800781 478.195312 930.960938 C 478.402344 933.160156 478.609375 935.359375 478.851562 937.53125 C 479.542969 943.671875 480.339844 949.691406 481.261719 955.578125 C 481.390625 956.410156 481.484375 957.269531 481.621094 958.089844 C 482.707031 964.75 483.984375 971.230469 485.359375 977.578125 C 485.757812 979.371094 486.1875 981.121094 486.597656 982.890625 C 487.675781 987.539062 488.828125 992.101562 490.058594 996.578125 C 490.578125 998.480469 491.097656 1000.378906 491.648438 1002.238281 C 493.066406 1007.109375 494.570312 1011.871094 496.160156 1016.539062 C 496.527344 1017.609375 496.863281 1018.730469 497.238281 1019.800781 C 499.226562 1025.460938 501.347656 1030.980469 503.570312 1036.359375 C 504.132812 1037.71875 504.734375 1039.039062 505.3125 1040.378906 C 507.054688 1044.441406 508.851562 1048.429688 510.71875 1052.339844 C 511.480469 1053.929688 512.25 1055.519531 513.035156 1057.089844 C 514.996094 1061.03125 517.015625 1064.890625 519.101562 1068.671875 C 519.707031 1069.761719 520.277344 1070.878906 520.894531 1071.960938 C 523.59375 1076.75 526.386719 1081.398438 529.269531 1085.941406 C 529.867188 1086.878906 530.5 1087.78125 531.101562 1088.71875 C 533.449219 1092.308594 535.828125 1095.839844 538.269531 1099.28125 C 539.203125 1100.589844 540.140625 1101.890625 541.082031 1103.179688 C 543.4375 1106.410156 545.84375 1109.570312 548.285156 1112.660156 C 549.082031 1113.671875 549.847656 1114.691406 550.652344 1115.679688 C 553.890625 1119.691406 557.179688 1123.609375 560.539062 1127.398438 C 561.003906 1127.921875 561.476562 1128.410156 561.945312 1128.929688 C 564.855469 1132.191406 567.816406 1135.359375 570.804688 1138.460938 C 571.816406 1139.511719 572.84375 1140.539062 573.859375 1141.570312 C 576.496094 1144.230469 579.15625 1146.839844 581.832031 1149.390625 C 582.765625 1150.269531 583.679688 1151.179688 584.621094 1152.050781 C 588.195312 1155.378906 591.796875 1158.640625 595.429688 1161.789062 C 595.445312 1161.800781 595.46875 1161.820312 595.480469 1161.828125 C 595.480469 1161.839844 595.484375 1161.839844 595.484375 1161.839844 C 619.355469 1182.488281 644.339844 1199.230469 667.9375 1213.460938 C 668.019531 1213.511719 668.101562 1213.558594 668.1875 1213.609375 C 672.476562 1216.199219 676.710938 1218.679688 680.898438 1221.121094 C 681.53125 1221.480469 682.164062 1221.851562 682.796875 1222.21875 C 686.902344 1224.589844 690.96875 1226.910156 694.933594 1229.160156 C 699.28125 1231.609375 703.417969 1234.128906 707.570312 1236.640625 C 709.792969 1238 711.90625 1239.371094 714.082031 1240.730469 C 730.617188 1251.089844 745.726562 1261.789062 759.011719 1272.289062 C 796.902344 1302.25 821.351562 1330.160156 830.585938 1341.421875 C 833.339844 1344.769531 834.769531 1346.691406 834.769531 1346.691406 L 834.769531 1357.078125 L 914.628906 1357.078125 L 914.628906 1346.691406 C 914.628906 1346.691406 915.722656 1345.230469 917.816406 1342.648438 C 928.878906 1328.988281 968.796875 1282.789062 1032.980469 1242.050781 C 1039.878906 1237.671875 1047.019531 1233.351562 1054.46875 1229.160156 C 1064.160156 1223.691406 1074.300781 1217.828125 1084.679688 1211.5 L 1084.691406 1211.5 C 1084.871094 1211.378906 1085.050781 1211.269531 1085.230469 1211.171875 C 1087.589844 1209.71875 1089.96875 1208.25 1092.359375 1206.75 C 1092.789062 1206.46875 1093.230469 1206.191406 1093.679688 1205.910156 C 1096.019531 1204.441406 1098.378906 1202.929688 1100.75 1201.410156 C 1101.128906 1201.160156 1101.511719 1200.898438 1101.890625 1200.648438 C 1111.71875 1194.238281 1121.640625 1187.351562 1131.53125 1179.890625 C 1132.519531 1179.140625 1133.519531 1178.398438 1134.519531 1177.628906 C 1136.21875 1176.320312 1137.910156 1174.980469 1139.609375 1173.640625 C 1140.839844 1172.660156 1142.070312 1171.691406 1143.289062 1170.699219 C 1144.878906 1169.421875 1146.460938 1168.101562 1148.050781 1166.78125 C 1149.378906 1165.671875 1150.710938 1164.558594 1152.039062 1163.429688 C 1153.550781 1162.128906 1155.039062 1160.828125 1156.539062 1159.511719 C 1157.929688 1158.289062 1159.320312 1157.039062 1160.710938 1155.78125 C 1162.140625 1154.480469 1163.570312 1153.179688 1165 1151.851562 C 1166.449219 1150.488281 1167.890625 1149.109375 1169.320312 1147.730469 C 1170.671875 1146.421875 1172.019531 1145.128906 1173.351562 1143.800781 C 1174.890625 1142.28125 1176.410156 1140.710938 1177.929688 1139.140625 C 1179.148438 1137.878906 1180.371094 1136.648438 1181.570312 1135.378906 C 1183.378906 1133.449219 1185.160156 1131.46875 1186.949219 1129.5 C 1187.828125 1128.511719 1188.738281 1127.550781 1189.628906 1126.550781 C 1192.238281 1123.570312 1194.828125 1120.519531 1197.378906 1117.398438 C 1198.140625 1116.480469 1198.871094 1115.511719 1199.621094 1114.570312 C 1201.441406 1112.300781 1203.25 1110.03125 1205.019531 1107.691406 C 1205.960938 1106.449219 1206.878906 1105.160156 1207.800781 1103.898438 C 1209.351562 1101.800781 1210.890625 1099.679688 1212.410156 1097.519531 C 1213.378906 1096.140625 1214.320312 1094.71875 1215.269531 1093.308594 C 1216.699219 1091.191406 1218.128906 1089.050781 1219.519531 1086.871094 C 1220.460938 1085.390625 1221.390625 1083.898438 1222.320312 1082.398438 C 1223.679688 1080.199219 1225.019531 1077.96875 1226.339844 1075.710938 C 1227.230469 1074.179688 1228.121094 1072.628906 1229 1071.070312 C 1230.308594 1068.730469 1231.589844 1066.371094 1232.859375 1063.96875 C 1233.679688 1062.410156 1234.5 1060.871094 1235.300781 1059.289062 C 1236.609375 1056.730469 1237.859375 1054.109375 1239.109375 1051.480469 C 1239.808594 1050 1240.53125 1048.539062 1241.210938 1047.039062 C 1242.609375 1043.960938 1243.949219 1040.808594 1245.28125 1037.640625 C 1245.75 1036.511719 1246.25 1035.410156 1246.710938 1034.28125 C 1248.480469 1029.898438 1250.179688 1025.449219 1251.800781 1020.890625 C 1252 1020.320312 1252.179688 1019.730469 1252.378906 1019.148438 C 1253.761719 1015.191406 1255.101562 1011.160156 1256.359375 1007.058594 C 1256.839844 1005.511719 1257.28125 1003.898438 1257.730469 1002.320312 C 1258.671875 999.140625 1259.589844 995.929688 1260.449219 992.660156 C 1260.941406 990.78125 1261.390625 988.859375 1261.859375 986.941406 C 1262.609375 983.878906 1263.351562 980.789062 1264.03125 977.648438 C 1264.480469 975.589844 1264.890625 973.488281 1265.308594 971.390625 C 1265.929688 968.300781 1266.519531 965.179688 1267.070312 962 C 1267.449219 959.820312 1267.820312 957.621094 1268.171875 955.410156 C 1268.671875 952.191406 1269.128906 948.941406 1269.570312 945.648438 C 1269.859375 943.398438 1270.160156 941.160156 1270.421875 938.890625 C 1270.808594 935.460938 1271.148438 931.960938 1271.46875 928.441406 C 1271.671875 926.230469 1271.890625 924.03125 1272.070312 921.78125 C 1272.359375 917.890625 1272.558594 913.898438 1272.769531 909.910156 C 1272.859375 907.960938 1273 906.050781 1273.070312 904.078125 C 1273.300781 898.070312 1273.429688 891.980469 1273.429688 885.75 C 1273.429688 881.070312 1273.328125 876.28125 1273.199219 871.429688"/></g><g><path fill="#8f1728" d="M 627.128906 818.011719 C 634.5625 795.828125 665.46875 794.71875 665.46875 794.71875 C 732.042969 800.53125 922.058594 805.53125 922.058594 805.53125 C 971.988281 806.980469 940.09375 884.589844 922.058594 927.589844 C 904.03125 970.570312 883.222656 985.839844 847.164062 999.710938 C 811.101562 1013.570312 729.269531 1002.480469 669.632812 969.191406 C 609.988281 935.910156 619.695312 840.199219 627.128906 818.011719 Z M 796.171875 1055.171875 C 999.851562 1070.839844 1047.910156 902.621094 1055.691406 776.410156 C 1001.730469 779.238281 940.140625 780.839844 874.703125 780.839844 C 865.324219 780.839844 856.0625 780.800781 846.855469 780.738281 C 844.882812 780.71875 842.914062 780.710938 840.953125 780.691406 C 831.910156 780.609375 822.941406 780.511719 814.089844 780.371094 C 813.054688 780.359375 812.046875 780.339844 811.015625 780.320312 C 802.574219 780.179688 794.230469 780.019531 785.976562 779.820312 C 784.761719 779.800781 783.53125 779.769531 782.316406 779.75 C 773.398438 779.53125 764.613281 779.28125 755.953125 779.011719 C 754.976562 778.980469 754.015625 778.941406 753.039062 778.910156 C 735.214844 778.328125 717.980469 777.621094 701.417969 776.800781 C 700.644531 776.761719 699.882812 776.71875 699.117188 776.679688 C 682.644531 775.859375 666.867188 774.910156 651.890625 773.871094 C 651.394531 773.828125 650.875 773.800781 650.382812 773.769531 C 650.414062 773.769531 650.441406 773.769531 650.46875 773.769531 C 626.632812 772.089844 604.84375 770.148438 585.515625 767.988281 C 576.890625 870.269531 586.6875 1039.070312 796.171875 1055.171875"/></g><g><path fill="#681024" d="M 913.371094 1286.960938 C 893.914062 1327.191406 888.875 1357.078125 888.875 1357.078125 L 914.628906 1357.078125 L 914.628906 1346.691406 C 914.628906 1346.691406 915.722656 1345.230469 917.816406 1342.648438 C 928.878906 1328.988281 968.796875 1282.789062 1032.980469 1242.050781 C 1039.878906 1237.671875 1047.019531 1233.351562 1054.46875 1229.160156 C 1064.160156 1223.691406 1074.300781 1217.828125 1084.679688 1211.5 C 1029.960938 1227.050781 984.753906 1234.351562 970.605469 1239.648438 C 947.449219 1248.339844 927.339844 1269.078125 913.371094 1286.960938"/></g><g><path fill="#681024" d="M 1131.53125 1179.890625 C 1121.648438 1187.339844 1111.71875 1194.238281 1101.890625 1200.648438 C 1111.71875 1194.238281 1121.640625 1187.351562 1131.53125 1179.890625"/></g><g><path fill="#681024" d="M 830.585938 1341.421875 C 833.339844 1344.769531 834.769531 1346.691406 834.769531 1346.691406 L 834.769531 1357.078125 L 874.703125 1357.078125 C 874.695312 1343.820312 876.425781 1330.5 879.398438 1317.328125 L 851.324219 1317.328125 C 851.324219 1317.328125 826.355469 1289.589844 779.195312 1236.878906 C 748.472656 1202.539062 672.988281 1196.429688 595.484375 1161.839844 C 619.355469 1182.488281 644.339844 1199.230469 667.9375 1213.460938 C 668.019531 1213.511719 668.101562 1213.558594 668.1875 1213.609375 C 672.476562 1216.199219 676.710938 1218.679688 680.898438 1221.121094 C 681.53125 1221.480469 682.164062 1221.851562 682.796875 1222.21875 C 686.902344 1224.589844 690.96875 1226.910156 694.933594 1229.160156 C 699.28125 1231.609375 703.417969 1234.128906 707.570312 1236.640625 C 709.792969 1238 711.90625 1239.371094 714.082031 1240.730469 C 730.617188 1251.089844 745.726562 1261.789062 759.011719 1272.289062 C 796.902344 1302.25 821.351562 1330.160156 830.585938 1341.421875"/></g><g><path fill="#681024" d="M 1042.460938 1138.660156 C 1087.640625 1113.539062 1124.640625 1076.78125 1150.910156 1031.609375 C 1197 952.320312 1203.160156 842.890625 1199.949219 763.269531 C 1189.5 764.890625 1177.859375 766.410156 1165.109375 767.851562 C 1166.121094 777.039062 1166.949219 786.019531 1167.550781 794.71875 C 1179.730469 971.570312 1110 1076.820312 1042.460938 1138.660156"/></g><g><path fill="#8f193f" d="M 1081.238281 809.839844 C 1081.238281 809.808594 1081.238281 809.78125 1081.238281 809.761719 C 1081.921875 808.808594 1082.628906 807.878906 1083.410156 806.941406 C 1101.898438 784.75 1122.269531 799.539062 1122.269531 799.539062 C 1164.839844 832.820312 1122.25 940.089844 1103.75 984.46875 C 1101.75 989.28125 1099.558594 993.929688 1097.230469 998.449219 C 1097.039062 998.851562 1096.839844 999.269531 1096.628906 999.660156 C 1094.378906 1003.988281 1091.949219 1008.179688 1089.398438 1012.261719 C 1089.089844 1012.769531 1088.789062 1013.269531 1088.46875 1013.78125 C 1085.898438 1017.800781 1083.179688 1021.71875 1080.300781 1025.539062 C 1079.960938 1026 1079.609375 1026.460938 1079.261719 1026.910156 C 1076.320312 1030.769531 1073.210938 1034.53125 1069.929688 1038.199219 C 1069.660156 1038.519531 1069.359375 1038.828125 1069.070312 1039.140625 C 1065.648438 1042.929688 1062.058594 1046.640625 1058.300781 1050.25 C 1058.210938 1050.339844 1058.128906 1050.410156 1058.039062 1050.488281 C 1046.140625 1061.851562 1032.441406 1072.449219 1016.820312 1082.710938 C 1016.789062 1082.738281 1016.75 1082.769531 1016.71875 1082.789062 C 1016.710938 1082.789062 1016.699219 1082.800781 1016.679688 1082.808594 C 1005.71875 1104 993.191406 1124.878906 978.921875 1145.351562 C 978.921875 1145.351562 970.246094 1154.359375 957.925781 1169.628906 C 958.828125 1169.449219 959.714844 1169.230469 960.621094 1169.03125 C 963.820312 1168.359375 967.007812 1167.660156 970.15625 1166.890625 C 971.796875 1166.488281 973.417969 1166.039062 975.046875 1165.609375 C 977.421875 1164.988281 979.792969 1164.359375 982.132812 1163.691406 C 983.980469 1163.160156 985.808594 1162.589844 987.625 1162.019531 C 989.6875 1161.378906 991.746094 1160.730469 993.78125 1160.050781 C 995.738281 1159.390625 997.6875 1158.71875 999.621094 1158.03125 C 1001.429688 1157.378906 1003.230469 1156.710938 1005.03125 1156.019531 C 1007.101562 1155.238281 1009.171875 1154.449219 1011.21875 1153.609375 C 1012.730469 1153 1014.210938 1152.351562 1015.699219 1151.710938 C 1017.960938 1150.75 1020.230469 1149.789062 1022.460938 1148.769531 C 1023.210938 1148.441406 1023.941406 1148.058594 1024.679688 1147.710938 C 1030.738281 1144.878906 1036.691406 1141.871094 1042.488281 1138.640625 C 1042.480469 1138.648438 1042.460938 1138.660156 1042.460938 1138.671875 L 1042.460938 1138.660156 C 1110 1076.820312 1179.730469 971.570312 1167.550781 794.71875 C 1166.949219 786.019531 1166.121094 777.039062 1165.109375 767.851562 C 1140.679688 770.609375 1112.269531 773.011719 1080.730469 774.96875 C 1081.160156 786.570312 1081.328125 798.191406 1081.21875 809.851562 C 1081.230469 809.851562 1081.230469 809.839844 1081.238281 809.839844"/></g><g><path fill="#8f193f" d="M 908.785156 1293.011719 C 907.367188 1294.941406 906.039062 1296.800781 904.800781 1298.589844 C 904.785156 1298.601562 904.773438 1298.609375 904.769531 1298.628906 C 897.222656 1309.46875 892.933594 1317.328125 892.933594 1317.328125 L 879.398438 1317.328125 C 876.425781 1330.5 874.695312 1343.820312 874.703125 1357.078125 L 888.875 1357.078125 C 888.875 1357.078125 893.914062 1327.191406 913.371094 1286.960938 C 913.359375 1286.980469 913.34375 1287.011719 913.324219 1287.019531 C 911.765625 1289.019531 910.277344 1290.980469 908.875 1292.890625 C 908.847656 1292.929688 908.816406 1292.960938 908.785156 1293.011719"/></g><g><path fill="#430c17" d="M 957.917969 1169.628906 C 900.410156 1181.199219 835.171875 1177.230469 765.328125 1153.660156 C 571.550781 1088.289062 533.035156 875.210938 543.882812 762.390625 C 530.28125 760.148438 519.03125 757.761719 510.347656 755.25 C 445.972656 1191.78125 874.703125 1219.300781 874.703125 1219.300781 C 891.820312 1219.378906 908.132812 1218.648438 923.71875 1217.210938 C 923.722656 1217.210938 923.730469 1217.210938 923.742188 1217.210938 C 935.769531 1198.25 948.023438 1181.898438 957.917969 1169.628906"/></g><g><path fill="#5a1020" d="M 1014.71875 1161.980469 C 1023.769531 1155 1033.101562 1147.25 1042.460938 1138.671875 C 1042.460938 1138.660156 1042.480469 1138.648438 1042.488281 1138.640625 C 1036.691406 1141.871094 1030.738281 1144.878906 1024.679688 1147.710938 C 1023.941406 1148.058594 1023.210938 1148.441406 1022.460938 1148.769531 C 1020.230469 1149.789062 1017.960938 1150.75 1015.699219 1151.710938 C 1014.210938 1152.351562 1012.730469 1153 1011.21875 1153.609375 C 1009.171875 1154.449219 1007.101562 1155.238281 1005.03125 1156.019531 C 1003.230469 1156.710938 1001.429688 1157.378906 999.621094 1158.03125 C 997.6875 1158.71875 995.738281 1159.390625 993.78125 1160.050781 C 991.746094 1160.730469 989.6875 1161.378906 987.625 1162.019531 C 985.808594 1162.589844 983.980469 1163.160156 982.132812 1163.691406 C 979.792969 1164.359375 977.421875 1164.988281 975.046875 1165.609375 C 973.417969 1166.039062 971.796875 1166.488281 970.15625 1166.890625 C 967.007812 1167.660156 963.820312 1168.359375 960.621094 1169.03125 C 959.714844 1169.230469 958.828125 1169.449219 957.925781 1169.628906 L 957.917969 1169.628906 C 948.023438 1181.898438 935.769531 1198.25 923.742188 1217.210938 C 930.003906 1216.640625 936.117188 1215.929688 942.140625 1215.128906 C 943 1215.019531 943.851562 1214.890625 944.710938 1214.769531 C 950.617188 1213.949219 956.429688 1213.03125 962.121094 1212 C 962.167969 1211.980469 962.222656 1211.980469 962.273438 1211.96875 C 976.828125 1194.878906 994.113281 1177.871094 1014.71875 1161.980469"/></g><g><path fill="#260c11" d="M 1273.109375 868.359375 C 1272.960938 863.558594 1272.75 858.691406 1272.46875 853.738281 C 1272.441406 853.070312 1272.390625 852.371094 1272.351562 851.691406 C 1272.070312 846.980469 1271.730469 842.199219 1271.359375 837.359375 C 1271.300781 836.648438 1271.261719 835.949219 1271.199219 835.230469 C 1270.769531 829.960938 1270.28125 824.601562 1269.730469 819.179688 C 1269.660156 818.410156 1269.570312 817.621094 1269.5 816.839844 C 1268.328125 805.558594 1266.949219 794.011719 1265.339844 782.238281 C 1265.269531 781.710938 1265.191406 781.179688 1265.121094 780.640625 C 1263.429688 768.429688 1261.53125 755.988281 1259.429688 743.390625 C 1259.140625 747.570312 1251.859375 751.589844 1238.769531 755.339844 C 1245.230469 898.308594 1221.300781 1164.570312 962.273438 1211.96875 C 962.222656 1211.980469 962.167969 1211.980469 962.121094 1212 C 962.15625 1212 962.203125 1211.980469 962.246094 1211.980469 C 940.140625 1237.949219 924.4375 1264.089844 913.390625 1286.941406 C 913.367188 1286.96875 913.347656 1286.988281 913.324219 1287.019531 C 913.34375 1287.011719 913.359375 1286.980469 913.371094 1286.960938 C 927.339844 1269.078125 947.449219 1248.339844 970.605469 1239.648438 C 984.753906 1234.351562 1029.960938 1227.050781 1084.679688 1211.5 L 1084.691406 1211.5 C 1084.871094 1211.378906 1085.050781 1211.269531 1085.230469 1211.171875 C 1087.589844 1209.71875 1089.96875 1208.25 1092.359375 1206.75 C 1092.789062 1206.46875 1093.230469 1206.191406 1093.679688 1205.910156 C 1096.019531 1204.441406 1098.378906 1202.929688 1100.75 1201.410156 C 1101.128906 1201.160156 1101.511719 1200.898438 1101.890625 1200.648438 C 1111.71875 1194.238281 1121.648438 1187.339844 1131.53125 1179.890625 C 1132.519531 1179.140625 1133.519531 1178.398438 1134.519531 1177.628906 C 1136.21875 1176.320312 1137.910156 1174.980469 1139.609375 1173.640625 C 1140.839844 1172.660156 1142.070312 1171.691406 1143.289062 1170.699219 C 1144.878906 1169.421875 1146.460938 1168.101562 1148.050781 1166.78125 C 1149.378906 1165.671875 1150.710938 1164.558594 1152.039062 1163.429688 C 1153.550781 1162.128906 1155.039062 1160.828125 1156.539062 1159.511719 C 1157.929688 1158.289062 1159.320312 1157.039062 1160.710938 1155.78125 C 1162.140625 1154.480469 1163.570312 1153.179688 1165 1151.851562 C 1166.449219 1150.488281 1167.890625 1149.109375 1169.320312 1147.730469 C 1170.671875 1146.421875 1172.019531 1145.128906 1173.351562 1143.800781 C 1174.890625 1142.28125 1176.410156 1140.710938 1177.929688 1139.140625 C 1179.148438 1137.878906 1180.371094 1136.648438 1181.570312 1135.378906 C 1183.378906 1133.449219 1185.160156 1131.46875 1186.949219 1129.5 C 1187.828125 1128.511719 1188.738281 1127.550781 1189.628906 1126.550781 C 1192.238281 1123.570312 1194.828125 1120.519531 1197.378906 1117.398438 C 1198.140625 1116.480469 1198.871094 1115.511719 1199.621094 1114.570312 C 1201.441406 1112.300781 1203.25 1110.03125 1205.019531 1107.691406 C 1205.960938 1106.449219 1206.878906 1105.160156 1207.800781 1103.898438 C 1209.351562 1101.800781 1210.890625 1099.679688 1212.410156 1097.519531 C 1213.378906 1096.140625 1214.320312 1094.71875 1215.269531 1093.308594 C 1216.699219 1091.191406 1218.128906 1089.050781 1219.519531 1086.871094 C 1220.460938 1085.390625 1221.390625 1083.898438 1222.320312 1082.398438 C 1223.679688 1080.199219 1225.019531 1077.96875 1226.339844 1075.710938 C 1227.230469 1074.179688 1228.121094 1072.628906 1229 1071.070312 C 1230.308594 1068.730469 1231.589844 1066.371094 1232.859375 1063.96875 C 1233.679688 1062.410156 1234.5 1060.871094 1235.300781 1059.289062 C 1236.609375 1056.730469 1237.859375 1054.109375 1239.109375 1051.480469 C 1239.808594 1050 1240.53125 1048.539062 1241.210938 1047.039062 C 1242.609375 1043.960938 1243.949219 1040.808594 1245.28125 1037.640625 C 1245.75 1036.511719 1246.25 1035.410156 1246.710938 1034.28125 C 1248.480469 1029.898438 1250.179688 1025.449219 1251.800781 1020.890625 C 1252 1020.320312 1252.179688 1019.730469 1252.378906 1019.148438 C 1253.761719 1015.191406 1255.101562 1011.160156 1256.359375 1007.058594 C 1256.839844 1005.511719 1257.28125 1003.898438 1257.730469 1002.320312 C 1258.671875 999.140625 1259.589844 995.929688 1260.449219 992.660156 C 1260.941406 990.78125 1261.390625 988.859375 1261.859375 986.941406 C 1262.609375 983.878906 1263.351562 980.789062 1264.03125 977.648438 C 1264.480469 975.589844 1264.890625 973.488281 1265.308594 971.390625 C 1265.929688 968.300781 1266.519531 965.179688 1267.070312 962 C 1267.449219 959.820312 1267.820312 957.621094 1268.171875 955.410156 C 1268.671875 952.191406 1269.128906 948.941406 1269.570312 945.648438 C 1269.859375 943.398438 1270.160156 941.160156 1270.421875 938.890625 C 1270.808594 935.460938 1271.148438 931.960938 1271.46875 928.441406 C 1271.671875 926.230469 1271.890625 924.03125 1272.070312 921.78125 C 1272.359375 917.890625 1272.558594 913.898438 1272.769531 909.910156 C 1272.859375 907.960938 1273 906.050781 1273.070312 904.078125 C 1273.300781 898.070312 1273.429688 891.980469 1273.429688 885.75 C 1273.429688 881.070312 1273.328125 876.28125 1273.199219 871.429688 C 1273.179688 870.410156 1273.148438 869.378906 1273.109375 868.359375"/></g><g><path fill="#260c11" d="M 851.324219 1317.328125 L 879.40625 1317.328125 C 887.59375 1281.078125 905.390625 1246.101562 923.71875 1217.210938 C 908.132812 1218.648438 891.820312 1219.378906 874.703125 1219.300781 C 874.703125 1219.300781 445.972656 1191.78125 510.347656 755.25 C 497.4375 751.519531 490.265625 747.539062 489.96875 743.390625 C 489.941406 743.589844 489.910156 743.789062 489.875 743.988281 C 487.808594 756.429688 485.929688 768.71875 484.269531 780.78125 C 484.207031 781.21875 484.144531 781.660156 484.089844 782.101562 C 482.472656 793.941406 481.070312 805.550781 479.90625 816.890625 C 479.832031 817.640625 479.753906 818.398438 479.671875 819.148438 C 479.128906 824.578125 478.636719 829.960938 478.207031 835.269531 C 478.148438 835.949219 478.101562 836.628906 478.046875 837.320312 C 477.664062 842.171875 477.335938 846.96875 477.054688 851.699219 C 477.019531 852.378906 476.972656 853.070312 476.929688 853.738281 C 476.652344 858.691406 476.453125 863.558594 476.292969 868.359375 C 476.257812 869.378906 476.226562 870.410156 476.203125 871.429688 C 476.074219 876.28125 475.980469 881.070312 475.980469 885.75 C 475.980469 893.53125 476.210938 901.089844 476.558594 908.539062 C 476.664062 910.78125 476.816406 912.980469 476.953125 915.179688 C 477.277344 920.53125 477.691406 925.800781 478.195312 930.960938 C 478.402344 933.160156 478.609375 935.359375 478.851562 937.53125 C 479.542969 943.671875 480.339844 949.691406 481.261719 955.578125 C 481.390625 956.410156 481.484375 957.269531 481.621094 958.089844 C 482.707031 964.75 483.984375 971.230469 485.359375 977.578125 C 485.757812 979.371094 486.1875 981.121094 486.597656 982.890625 C 487.675781 987.539062 488.828125 992.101562 490.058594 996.578125 C 490.578125 998.480469 491.097656 1000.378906 491.648438 1002.238281 C 493.066406 1007.109375 494.570312 1011.871094 496.160156 1016.539062 C 496.527344 1017.609375 496.863281 1018.730469 497.238281 1019.800781 C 499.226562 1025.460938 501.347656 1030.980469 503.570312 1036.359375 C 504.132812 1037.71875 504.734375 1039.039062 505.3125 1040.378906 C 507.054688 1044.441406 508.851562 1048.429688 510.71875 1052.339844 C 511.480469 1053.929688 512.25 1055.519531 513.035156 1057.089844 C 514.996094 1061.03125 517.015625 1064.890625 519.101562 1068.671875 C 519.707031 1069.761719 520.277344 1070.878906 520.894531 1071.960938 C 523.59375 1076.75 526.386719 1081.398438 529.269531 1085.941406 C 529.867188 1086.878906 530.5 1087.78125 531.101562 1088.71875 C 533.449219 1092.308594 535.828125 1095.839844 538.269531 1099.28125 C 539.203125 1100.589844 540.140625 1101.890625 541.082031 1103.179688 C 543.4375 1106.410156 545.84375 1109.570312 548.285156 1112.660156 C 549.082031 1113.671875 549.847656 1114.691406 550.652344 1115.679688 C 553.890625 1119.691406 557.179688 1123.609375 560.539062 1127.398438 C 561.003906 1127.921875 561.476562 1128.410156 561.945312 1128.929688 C 564.855469 1132.191406 567.816406 1135.359375 570.804688 1138.460938 C 571.816406 1139.511719 572.84375 1140.539062 573.859375 1141.570312 C 576.496094 1144.230469 579.15625 1146.839844 581.832031 1149.390625 C 582.765625 1150.269531 583.679688 1151.179688 584.621094 1152.050781 C 588.195312 1155.378906 591.796875 1158.640625 595.429688 1161.789062 C 595.445312 1161.800781 595.46875 1161.820312 595.480469 1161.828125 C 595.480469 1161.839844 595.484375 1161.839844 595.484375 1161.839844 C 672.988281 1196.429688 748.472656 1202.539062 779.195312 1236.878906 C 826.355469 1289.589844 851.324219 1317.328125 851.324219 1317.328125"/></g><g><path fill="#3b0f1a" d="M 942.140625 1215.128906 C 936.117188 1215.929688 930.003906 1216.640625 923.742188 1217.210938 C 923.730469 1217.210938 923.722656 1217.210938 923.71875 1217.210938 C 905.390625 1246.101562 887.59375 1281.078125 879.40625 1317.328125 L 892.933594 1317.328125 C 892.933594 1317.328125 897.222656 1309.46875 904.769531 1298.628906 C 904.773438 1298.609375 904.785156 1298.601562 904.800781 1298.589844 C 906.039062 1296.800781 907.367188 1294.941406 908.785156 1293.011719 C 908.816406 1292.960938 908.847656 1292.929688 908.875 1292.890625 C 910.277344 1290.980469 911.765625 1289.019531 913.324219 1287.019531 C 913.347656 1286.988281 913.367188 1286.96875 913.390625 1286.941406 C 924.4375 1264.089844 940.140625 1237.949219 962.246094 1211.980469 C 962.203125 1211.980469 962.15625 1212 962.121094 1212 C 956.429688 1213.03125 950.617188 1213.949219 944.710938 1214.769531 C 943.851562 1214.890625 943 1215.019531 942.140625 1215.128906"/></g><g><path fill="#a51d34" d="M 1259.511719 743.121094 C 1259.511719 742.71875 1259.328125 742.320312 1259.199219 741.921875 C 1259.121094 741.671875 1259.128906 741.421875 1258.988281 741.160156 C 1259.339844 741.808594 1259.511719 742.460938 1259.511719 743.121094"/></g><g><path fill="#a51d34" d="M 1168.75 718.808594 C 1165.28125 718.398438 1161.738281 718 1158.089844 717.609375 C 1157.71875 717.570312 1157.320312 717.53125 1156.960938 717.5 C 1160.988281 717.921875 1164.929688 718.359375 1168.75 718.808594"/></g><g><path fill="#a51d34" d="M 651.890625 773.871094 C 666.867188 774.910156 682.644531 775.859375 699.117188 776.679688 C 682.644531 775.859375 666.875 774.910156 651.890625 773.871094"/></g><g><path fill="#a51d34" d="M 519.960938 737.300781 C 673.515625 691.109375 1098.199219 720.929688 1098.199219 720.929688 C 1246.601562 766.710938 413.167969 769.410156 519.960938 737.300781 Z M 510.347656 755.25 C 519.03125 757.761719 530.28125 760.148438 543.882812 762.390625 C 556 764.378906 569.96875 766.261719 585.515625 767.988281 C 604.84375 770.148438 626.632812 772.089844 650.46875 773.769531 C 661.8125 773.539062 674.589844 773.320312 688.4375 773.089844 C 681.152344 772.871094 675.617188 772.691406 672.753906 772.601562 C 672.753906 772.601562 715.746094 771.558594 727.191406 769.820312 C 736.832031 768.359375 768.089844 769.371094 786.414062 771.378906 C 932.820312 768.441406 1113.789062 762.058594 1140.570312 741 C 1152.558594 731.558594 1150.980469 723.160156 1143.519531 716.140625 C 1123.03125 714.179688 1100.359375 712.441406 1075.828125 710.960938 C 1017.300781 707.429688 948.4375 705.390625 874.703125 705.390625 C 825.363281 705.390625 778.246094 706.320312 734.890625 707.980469 C 651.554688 711.171875 582.363281 717.121094 539.015625 724.691406 C 509.613281 729.820312 492.148438 735.699219 490.207031 741.960938 C 490.082031 742.339844 489.898438 742.730469 489.898438 743.121094 C 489.898438 743.210938 489.964844 743.300781 489.96875 743.390625 C 490.265625 747.539062 497.4375 751.519531 510.347656 755.25"/></g><g><path fill="#430c17" d="M 1242.101562 752.128906 C 1181.148438 765.941406 962.28125 785.421875 835.371094 776.410156 C 835.371094 776.410156 1105.960938 759.5 1144.671875 755.601562 C 1196.339844 750.398438 1232.039062 740.269531 1241.058594 741.039062 C 1241.058594 741.039062 1254.121094 749.410156 1242.101562 752.128906 Z M 1258.519531 740.558594 C 1258.21875 740.121094 1257.941406 739.679688 1257.480469 739.230469 C 1257.25 739.011719 1256.890625 738.789062 1256.621094 738.570312 C 1256.109375 738.160156 1255.628906 737.738281 1254.980469 737.320312 C 1254.640625 737.109375 1254.191406 736.898438 1253.800781 736.679688 C 1253.078125 736.269531 1252.378906 735.859375 1251.519531 735.441406 C 1251.109375 735.25 1250.589844 735.058594 1250.140625 734.871094 C 1249.179688 734.441406 1248.230469 734.019531 1247.121094 733.601562 C 1246.671875 733.441406 1246.128906 733.269531 1245.648438 733.089844 C 1244.421875 732.660156 1243.179688 732.21875 1241.800781 731.789062 C 1241.351562 731.648438 1240.839844 731.519531 1240.378906 731.371094 C 1238.839844 730.921875 1237.28125 730.460938 1235.578125 730.011719 C 1235.160156 729.898438 1234.679688 729.789062 1234.25 729.679688 C 1232.410156 729.210938 1230.5 728.730469 1228.480469 728.269531 C 1228.121094 728.191406 1227.71875 728.109375 1227.359375 728.019531 C 1225.171875 727.539062 1222.910156 727.050781 1220.519531 726.570312 C 1220.25 726.511719 1219.949219 726.460938 1219.660156 726.410156 C 1217.121094 725.898438 1214.488281 725.410156 1211.730469 724.921875 C 1211.558594 724.890625 1211.371094 724.851562 1211.199219 724.820312 C 1208.289062 724.308594 1205.289062 723.808594 1202.171875 723.320312 C 1202.070312 723.300781 1201.960938 723.28125 1201.859375 723.269531 C 1198.640625 722.761719 1195.300781 722.25 1191.839844 721.761719 C 1191.800781 721.761719 1191.761719 721.75 1191.730469 721.75 C 1188.480469 721.289062 1185.089844 720.828125 1181.640625 720.378906 C 1180.921875 720.300781 1180.199219 720.199219 1179.46875 720.109375 C 1176.28125 719.710938 1173 719.300781 1169.640625 718.910156 C 1169.339844 718.878906 1169.058594 718.839844 1168.75 718.808594 C 1164.929688 718.359375 1160.988281 717.921875 1156.960938 717.5 C 1152.609375 717.039062 1148.171875 716.589844 1143.609375 716.148438 C 1143.570312 716.148438 1143.550781 716.140625 1143.519531 716.140625 C 1150.980469 723.160156 1152.558594 731.558594 1140.570312 741 C 1113.789062 762.058594 932.820312 768.441406 786.414062 771.378906 C 789.835938 771.761719 792.863281 772.171875 795.152344 772.601562 C 809.710938 775.378906 827.394531 777.109375 827.394531 777.109375 C 827.394531 777.109375 729.558594 774.339844 688.4375 773.089844 C 674.589844 773.320312 661.8125 773.539062 650.46875 773.769531 C 650.441406 773.769531 650.414062 773.769531 650.382812 773.769531 C 650.875 773.800781 651.394531 773.828125 651.890625 773.871094 C 666.875 774.910156 682.644531 775.859375 699.117188 776.679688 C 699.882812 776.71875 700.644531 776.761719 701.417969 776.800781 C 717.980469 777.621094 735.214844 778.328125 753.039062 778.910156 C 754.015625 778.941406 754.976562 778.980469 755.953125 779.011719 C 764.613281 779.28125 773.398438 779.53125 782.316406 779.75 C 783.53125 779.769531 784.761719 779.800781 785.976562 779.820312 C 794.230469 780.019531 802.574219 780.179688 811.015625 780.320312 C 812.046875 780.339844 813.054688 780.359375 814.089844 780.371094 C 822.941406 780.511719 831.910156 780.609375 840.953125 780.691406 C 842.914062 780.710938 844.882812 780.71875 846.855469 780.738281 C 856.0625 780.800781 865.324219 780.839844 874.703125 780.839844 C 940.140625 780.839844 1001.730469 779.238281 1055.691406 776.410156 C 1064.25 775.960938 1072.570312 775.480469 1080.730469 774.96875 C 1112.269531 773.011719 1140.679688 770.609375 1165.109375 767.851562 C 1177.859375 766.410156 1189.5 764.890625 1199.949219 763.269531 C 1203.160156 842.890625 1197 952.320312 1150.910156 1031.609375 C 1124.640625 1076.78125 1087.640625 1113.539062 1042.460938 1138.660156 L 1042.460938 1138.671875 C 1033.101562 1147.25 1023.769531 1155 1014.71875 1161.980469 C 994.113281 1177.871094 976.828125 1194.878906 962.273438 1211.96875 C 1221.300781 1164.570312 1245.230469 898.308594 1238.769531 755.339844 C 1251.859375 751.589844 1259.140625 747.570312 1259.429688 743.390625 L 1259.441406 743.390625 C 1259.449219 743.308594 1259.511719 743.210938 1259.511719 743.121094 C 1259.511719 742.460938 1259.339844 741.808594 1258.988281 741.160156 C 1258.890625 740.96875 1258.660156 740.761719 1258.519531 740.558594"/></g><g><path fill="#861635" d="M 1081.238281 809.839844 C 1081.230469 809.839844 1081.230469 809.851562 1081.21875 809.851562 C 1065.710938 831.320312 1072.960938 856.609375 1046.429688 932.699219 C 1018.691406 1012.210938 979.84375 1045.5 942.859375 1060.300781 C 905.875 1075.089844 878.136719 1075.089844 892.933594 1089.878906 C 907.722656 1104.679688 957.335938 1119.46875 1005.570312 1089.878906 C 1009.390625 1087.539062 1013.070312 1085.179688 1016.679688 1082.808594 C 1016.699219 1082.800781 1016.710938 1082.789062 1016.71875 1082.789062 C 1062.171875 994.949219 1080.359375 901.730469 1081.238281 809.839844"/></g><g><path fill="#861635" d="M 1058.039062 1050.488281 C 1046.128906 1061.851562 1032.441406 1072.449219 1016.820312 1082.710938 C 1032.441406 1072.449219 1046.140625 1061.851562 1058.039062 1050.488281"/></g><g><path fill="#ad1d35" d="M 669.632812 815.230469 C 684.886719 806.929688 768.105469 815.230469 768.105469 815.230469 C 783.367188 816.578125 827.742188 815.230469 831.902344 837.429688 C 836.066406 859.628906 800.058594 894.238281 754.234375 894.300781 C 690.4375 894.398438 680.730469 880.429688 669.632812 859.628906 C 655.753906 833.609375 654.371094 823.570312 669.632812 815.230469 Z M 669.632812 969.191406 C 729.269531 1002.480469 811.101562 1013.570312 847.164062 999.710938 C 883.222656 985.839844 904.03125 970.570312 922.058594 927.589844 C 940.09375 884.589844 971.988281 806.980469 922.058594 805.53125 C 922.058594 805.53125 732.042969 800.53125 665.46875 794.71875 C 665.46875 794.71875 634.5625 795.828125 627.128906 818.011719 C 619.695312 840.199219 609.988281 935.910156 669.632812 969.191406"/></g><g><path fill="#cd2c4e" d="M 754.234375 894.300781 C 800.058594 894.238281 836.066406 859.628906 831.902344 837.429688 C 827.742188 815.230469 783.367188 816.578125 768.105469 815.230469 C 768.105469 815.230469 684.886719 806.929688 669.632812 815.230469 C 654.371094 823.570312 655.753906 833.609375 669.632812 859.628906 C 680.730469 880.429688 690.4375 894.398438 754.234375 894.300781"/></g><g><path fill="#c12341" d="M 813.214844 720.929688 C 992.777344 728.148438 543.859375 762.390625 543.421875 741 C 542.972656 719.609375 813.214844 720.929688 813.214844 720.929688 Z M 1098.199219 720.929688 C 1098.199219 720.929688 673.515625 691.109375 519.960938 737.300781 C 413.167969 769.410156 1246.601562 766.710938 1098.199219 720.929688"/></g><g><path fill="#cd2c4e" d="M 566.304688 741 C 580.367188 725.050781 732.042969 726.480469 732.042969 726.480469 C 829.824219 731.328125 561.476562 746.46875 566.304688 741 Z M 813.214844 720.929688 C 813.214844 720.929688 542.972656 719.609375 543.421875 741 C 543.859375 762.390625 992.777344 728.148438 813.214844 720.929688"/></g><g><path fill="#af1f4d" d="M 1016.71875 1082.789062 C 1016.75 1082.769531 1016.789062 1082.738281 1016.820312 1082.710938 C 1032.441406 1072.449219 1046.128906 1061.851562 1058.039062 1050.488281 C 1058.128906 1050.410156 1058.210938 1050.339844 1058.300781 1050.25 C 1062.058594 1046.640625 1065.648438 1042.929688 1069.070312 1039.140625 C 1069.359375 1038.828125 1069.660156 1038.519531 1069.929688 1038.199219 C 1073.210938 1034.53125 1076.320312 1030.769531 1079.261719 1026.910156 C 1079.609375 1026.460938 1079.960938 1026 1080.300781 1025.539062 C 1083.179688 1021.71875 1085.898438 1017.800781 1088.46875 1013.78125 C 1088.789062 1013.269531 1089.089844 1012.769531 1089.398438 1012.261719 C 1091.949219 1008.179688 1094.378906 1003.988281 1096.628906 999.660156 C 1096.839844 999.269531 1097.039062 998.851562 1097.230469 998.449219 C 1099.558594 993.929688 1101.75 989.28125 1103.75 984.46875 C 1122.25 940.089844 1164.839844 832.820312 1122.269531 799.539062 C 1122.269531 799.539062 1101.898438 784.75 1083.410156 806.941406 C 1082.628906 807.878906 1081.921875 808.808594 1081.238281 809.761719 C 1081.238281 809.78125 1081.238281 809.808594 1081.238281 809.839844 C 1080.359375 901.730469 1062.171875 994.949219 1016.71875 1082.789062"/></g><g><path fill="#c5c4c4" d="M 1005.738281 2185.488281 C 990.941406 2193.878906 785.363281 2225.699219 767.375 2175.710938 C 758.421875 2150.800781 833.46875 2097.710938 836.648438 2082.910156 C 839.824219 2068.140625 909.78125 2068.140625 909.78125 2068.140625 C 909.78125 2068.140625 953.957031 2099.761719 941.011719 2105.210938 C 928.066406 2110.671875 838.496094 2106.96875 839.824219 2119.921875 C 841.148438 2132.871094 859.011719 2142.109375 872.273438 2143.960938 C 885.539062 2145.800781 958.238281 2136.570312 971.820312 2143.960938 C 985.398438 2151.359375 1020.539062 2177.058594 1005.738281 2185.488281 Z M 861.03125 1390.839844 C 863.808594 1356.160156 888.875 1390.839844 888.875 1390.839844 C 888.875 1390.839844 886.867188 1977.371094 888.875 2019.121094 C 890.679688 2056.578125 854.808594 2048.21875 855.613281 2030.21875 C 856.765625 2004.289062 855.140625 1464.46875 861.03125 1390.839844 Z M 688.585938 2233.648438 C 707.074219 2234.570312 846.695312 2249.539062 879.984375 2249.910156 C 913.269531 2250.289062 1034.929688 2228.96875 1048.269531 2233.648438 C 1048.269531 2233.648438 1082.480469 2241.960938 1068.621094 2254 C 1054.738281 2266.019531 932.921875 2268.789062 855.59375 2264.160156 C 778.28125 2259.539062 679.339844 2261.648438 667.324219 2249.960938 C 655.300781 2238.269531 670.089844 2232.71875 688.585938 2233.648438 Z M 593.492188 2285.429688 C 607.210938 2282.660156 727.421875 2297.28125 795.839844 2301.519531 C 864.269531 2305.769531 952.691406 2303.398438 971.820312 2301.351562 C 990.941406 2299.300781 1039.769531 2291.949219 1039.03125 2298.359375 C 1039.03125 2298.359375 1042.769531 2307.480469 1026.078125 2313.171875 C 1009.378906 2318.859375 708.007812 2323.339844 589.648438 2298.359375 C 589.648438 2298.359375 579.769531 2288.199219 593.492188 2285.429688 Z M 912.929688 2048.539062 C 912.929688 2048.539062 904.816406 1436.601562 914.628906 1357.078125 L 834.769531 1357.078125 C 845.777344 1431.050781 835.371094 2033 835.371094 2033 C 835.371094 2033 804.871094 2132.800781 724.078125 2160.578125 L 724.066406 2160.578125 C 724.125 2160.539062 724.179688 2160.5 724.230469 2160.460938 C 658.378906 2208.949219 580.113281 2237.800781 565.867188 2242.660156 C 540.515625 2251.289062 528.988281 2273.960938 528.988281 2273.960938 L 528.988281 2297.121094 C 770.527344 2351.539062 1142.980469 2310.25 1168.949219 2301.140625 C 1195.308594 2291.890625 1185.121094 2275.941406 1185.121094 2275.941406 C 974.304688 2309.941406 595.199219 2275.25 573.371094 2275.929688 C 551.539062 2276.589844 573.371094 2258.609375 573.371094 2258.609375 C 769.761719 2290.039062 1137.039062 2271.558594 1148.128906 2258.609375 C 1159.230469 2245.660156 1068.621094 2221.871094 1068.621094 2221.871094 C 833.757812 2253.550781 650.867188 2221.871094 650.867188 2221.871094 L 694.933594 2192.75 C 811.3125 2219.351562 1022.378906 2210.53125 1033.851562 2192.75 C 1038.179688 2186.019531 1033.121094 2173.460938 1025.128906 2160.421875 C 1028.351562 2162.800781 1031.601562 2165.101562 1034.871094 2167.378906 C 1007.289062 2148.160156 981.261719 2125.539062 962.003906 2099.878906 C 963.335938 2101.660156 964.613281 2103.460938 966.007812 2105.210938 C 924.148438 2068.738281 912.929688 2048.539062 912.929688 2048.539062"/></g><g><path fill="#c5c4c4" d="M 1033.851562 1241.679688 C 1033.808594 1241.710938 1033.769531 1241.738281 1033.71875 1241.761719 C 1040.300781 1237.488281 1047.191406 1233.269531 1054.46875 1229.160156 C 1047.019531 1233.351562 1039.878906 1237.671875 1032.980469 1242.050781 C 1033.269531 1241.921875 1033.570312 1241.789062 1033.851562 1241.679688"/></g><g><path fill="#c5c4c4" d="M 1045.480469 2174.550781 C 1042.558594 2172.640625 1039.640625 2170.691406 1036.75 2168.691406 C 1039.25 2170.410156 1041.75 2172.109375 1044.261719 2173.769531 C 1044.660156 2174.039062 1045.078125 2174.289062 1045.480469 2174.550781"/></g><g><path fill="#c5c4c4" d="M 830.585938 1341.421875 C 832.511719 1346.519531 833.984375 1351.75 834.769531 1357.078125 L 834.769531 1346.691406 C 834.769531 1346.691406 833.339844 1344.769531 830.585938 1341.421875"/></g><g><path fill="#c5c4c4" d="M 1164.789062 2235.671875 C 1163.769531 2235.269531 1162.679688 2234.828125 1161.628906 2234.398438 C 1162.480469 2234.75 1163.371094 2235.121094 1164.191406 2235.429688 C 1164.390625 2235.5 1164.589844 2235.589844 1164.789062 2235.671875"/></g><g><path fill="#c5c4c4" d="M 1170.789062 2238 C 1169.789062 2237.621094 1168.679688 2237.199219 1167.601562 2236.769531 C 1168.578125 2237.148438 1169.589844 2237.539062 1170.5 2237.890625 C 1170.589844 2237.929688 1170.691406 2237.960938 1170.789062 2238"/></g><g><path fill="#c5c4c4" d="M 914.628906 1346.691406 L 914.628906 1357.078125 C 915.238281 1352.148438 916.332031 1347.339844 917.816406 1342.648438 C 915.722656 1345.230469 914.628906 1346.691406 914.628906 1346.691406"/></g><g><path fill="#c5c4c4" d="M 1158.058594 2232.980469 C 1158.101562 2233 1158.128906 2233 1158.171875 2233.019531 C 1157.058594 2232.570312 1155.839844 2232.050781 1154.660156 2231.570312 C 1155.53125 2231.929688 1156.441406 2232.320312 1157.269531 2232.648438 C 1157.53125 2232.761719 1157.800781 2232.871094 1158.058594 2232.980469"/></g><g><path fill="#c5c4c4" d="M 955.78125 239.210938 C 960.554688 239.429688 965.417969 239.660156 970.363281 239.921875 C 965.410156 239.660156 960.554688 239.429688 955.78125 239.210938"/></g><g><path fill="#c5c4c4" d="M 937.796875 238.460938 C 942.652344 238.640625 947.722656 238.851562 952.878906 239.070312 C 947.726562 238.851562 942.648438 238.640625 937.796875 238.460938"/></g><g><path fill="#c5c4c4" d="M 971.894531 240 C 983.226562 240.589844 994.90625 241.320312 1006.558594 242.160156 C 994.90625 241.320312 983.242188 240.589844 971.894531 240"/></g><g><path fill="#c5c4c4" d="M 1122.269531 268.78125 C 1122.269531 276.5 1085.449219 283.371094 1028.128906 287.820312 C 1076.859375 401.238281 1134.640625 576.75 1158.089844 717.609375 C 1161.738281 718 1165.28125 718.398438 1168.75 718.808594 C 1169.058594 718.839844 1169.339844 718.878906 1169.640625 718.910156 C 1173 719.300781 1176.28125 719.710938 1179.46875 720.109375 C 1180.199219 720.199219 1180.921875 720.300781 1181.640625 720.378906 C 1185.089844 720.828125 1188.480469 721.289062 1191.730469 721.75 C 1191.761719 721.75 1191.800781 721.761719 1191.839844 721.761719 C 1195.300781 722.25 1198.640625 722.761719 1201.859375 723.269531 C 1201.960938 723.28125 1202.070312 723.300781 1202.171875 723.320312 C 1205.289062 723.808594 1208.289062 724.308594 1211.199219 724.820312 C 1211.371094 724.851562 1211.558594 724.890625 1211.730469 724.921875 C 1214.488281 725.410156 1217.121094 725.898438 1219.660156 726.410156 C 1219.949219 726.460938 1220.25 726.511719 1220.519531 726.570312 C 1222.910156 727.050781 1225.171875 727.539062 1227.359375 728.019531 C 1227.71875 728.109375 1228.121094 728.191406 1228.480469 728.269531 C 1230.5 728.730469 1232.410156 729.210938 1234.25 729.679688 C 1234.679688 729.789062 1235.160156 729.898438 1235.578125 730.011719 C 1237.28125 730.460938 1238.839844 730.921875 1240.378906 731.371094 C 1240.839844 731.519531 1241.351562 731.648438 1241.800781 731.789062 C 1243.179688 732.21875 1244.421875 732.660156 1245.648438 733.089844 C 1246.128906 733.269531 1246.671875 733.441406 1247.121094 733.601562 C 1248.230469 734.019531 1249.179688 734.441406 1250.140625 734.871094 C 1250.589844 735.058594 1251.109375 735.25 1251.519531 735.441406 C 1252.378906 735.859375 1253.078125 736.269531 1253.800781 736.679688 C 1254.191406 736.898438 1254.640625 737.109375 1254.980469 737.320312 C 1255.628906 737.738281 1256.109375 738.160156 1256.621094 738.570312 C 1256.890625 738.789062 1257.25 739.011719 1257.480469 739.230469 C 1257.941406 739.679688 1258.21875 740.121094 1258.519531 740.558594 C 1258.660156 740.761719 1258.890625 740.96875 1258.988281 741.160156 C 1259.128906 741.421875 1259.121094 741.671875 1259.199219 741.921875 C 1224.289062 533.269531 1137.179688 280.210938 1137.179688 280.210938 C 1137.179688 280.210938 1133.910156 266 1120.210938 260.101562 C 1099.339844 251.121094 1053.730469 245.609375 1007.429688 242.230469 C 1008.410156 244.238281 1009.410156 246.390625 1010.398438 248.488281 C 1077.761719 252.820312 1122.269531 260.28125 1122.269531 268.78125"/></g><g><path fill="#c5c4c4" d="M 1265.121094 780.640625 C 1263.441406 768.429688 1261.539062 755.988281 1259.441406 743.390625 L 1259.429688 743.390625 C 1261.53125 755.988281 1263.429688 768.429688 1265.121094 780.640625"/></g><g><path fill="#c5c4c4" d="M 1180.421875 2241.570312 C 1179.878906 2241.371094 1179.191406 2241.121094 1178.558594 2240.890625 C 1179.160156 2241.109375 1179.820312 2241.359375 1180.339844 2241.539062 C 1180.371094 2241.550781 1180.390625 2241.550781 1180.421875 2241.570312"/></g><g><path fill="#c5c4c4" d="M 1176.070312 2240 C 1175.039062 2239.601562 1173.871094 2239.160156 1172.679688 2238.710938 C 1173.808594 2239.140625 1174.941406 2239.570312 1175.941406 2239.941406 C 1175.988281 2239.960938 1176.039062 2239.980469 1176.070312 2240"/></g><g><path fill="#c5c4c4" d="M 489.96875 743.390625 C 489.941406 743.589844 489.910156 743.78125 489.875 743.988281 C 489.910156 743.789062 489.941406 743.589844 489.96875 743.390625"/></g><g><path fill="#c5c4c4" d="M 874.703125 244.511719 C 887.582031 244.511719 900.21875 244.609375 912.566406 244.800781 C 911.136719 242.300781 909.742188 239.871094 908.367188 237.519531 C 887.960938 236.980469 874.703125 236.878906 874.703125 236.878906 C 874.703125 236.878906 855.058594 237.089844 826.792969 238.019531 C 825.800781 240.300781 824.855469 242.699219 823.878906 245.019531 C 840.28125 244.691406 857.277344 244.511719 874.703125 244.511719"/></g><g><path fill="#c5c4c4" d="M 539.015625 724.691406 C 552.636719 547.621094 605.722656 374.910156 640.769531 276.730469 C 631.972656 274.230469 627.128906 271.570312 627.128906 268.78125 C 627.128906 265.390625 634.273438 262.148438 647.121094 259.21875 C 647.785156 257.410156 648.445312 255.601562 649.097656 253.871094 C 636.824219 256.71875 627.84375 260.039062 623.863281 263.929688 C 613.941406 273.570312 612.230469 280.210938 612.230469 280.210938 C 612.230469 280.210938 525.113281 533.289062 490.207031 741.960938 C 492.148438 735.699219 509.613281 729.820312 539.015625 724.691406"/></g><g><path fill="#c5c4c4" d="M 1090.789062 2201.410156 C 1090.800781 2201.410156 1090.808594 2201.421875 1090.820312 2201.429688 C 1089.539062 2200.738281 1088.238281 2200.019531 1086.949219 2199.320312 C 1087.800781 2199.789062 1088.671875 2200.269531 1089.519531 2200.71875 C 1089.949219 2200.949219 1090.359375 2201.179688 1090.789062 2201.410156"/></g><g><path fill="#c5c4c4" d="M 1111.949219 2212.269531 C 1112.128906 2212.359375 1112.28125 2212.429688 1112.449219 2212.511719 C 1111.261719 2211.929688 1110.019531 2211.300781 1108.808594 2210.699219 C 1109.648438 2211.121094 1110.519531 2211.558594 1111.339844 2211.96875 C 1111.550781 2212.070312 1111.75 2212.179688 1111.949219 2212.269531"/></g><g><path fill="#c5c4c4" d="M 1079.480469 2195.210938 C 1079.519531 2195.238281 1079.578125 2195.261719 1079.628906 2195.289062 C 1078.300781 2194.539062 1076.980469 2193.769531 1075.648438 2193.011719 C 1076.429688 2193.460938 1077.21875 2193.929688 1078 2194.371094 C 1078.488281 2194.648438 1078.980469 2194.929688 1079.480469 2195.210938"/></g><g><path fill="#c5c4c4" d="M 1122.539062 2217.371094 C 1121.429688 2216.851562 1120.289062 2216.289062 1119.171875 2215.75 C 1119.859375 2216.089844 1120.601562 2216.449219 1121.289062 2216.78125 C 1121.699219 2216.96875 1122.128906 2217.171875 1122.539062 2217.371094"/></g><g><path fill="#c5c4c4" d="M 1101.480469 2207.011719 C 1101.589844 2207.058594 1101.679688 2207.121094 1101.78125 2207.160156 C 1100.550781 2206.53125 1099.300781 2205.871094 1098.058594 2205.230469 C 1098.988281 2205.710938 1099.949219 2206.230469 1100.878906 2206.710938 C 1101.078125 2206.820312 1101.28125 2206.910156 1101.480469 2207.011719"/></g><g><path fill="#c5c4c4" d="M 1141.300781 2225.890625 C 1140.371094 2225.480469 1139.378906 2225.039062 1138.421875 2224.609375 C 1139.160156 2224.941406 1139.941406 2225.300781 1140.671875 2225.621094 C 1140.890625 2225.710938 1141.089844 2225.800781 1141.300781 2225.890625"/></g><g><path fill="#c5c4c4" d="M 1055.929688 2181.269531 C 1056.25 2181.480469 1056.558594 2181.648438 1056.890625 2181.851562 C 1055.46875 2180.96875 1054.070312 2180.058594 1052.648438 2179.160156 C 1053.550781 2179.738281 1054.460938 2180.351562 1055.371094 2180.910156 C 1055.550781 2181.03125 1055.738281 2181.160156 1055.929688 2181.269531"/></g><g><path fill="#c5c4c4" d="M 1149.929688 2229.601562 C 1148.949219 2229.191406 1147.929688 2228.75 1146.941406 2228.320312 C 1147.808594 2228.699219 1148.738281 2229.101562 1149.589844 2229.460938 C 1149.699219 2229.511719 1149.808594 2229.550781 1149.929688 2229.601562"/></g><g><path fill="#c5c4c4" d="M 1067.800781 2188.480469 C 1067.960938 2188.578125 1068.109375 2188.660156 1068.269531 2188.761719 C 1066.910156 2187.960938 1065.550781 2187.121094 1064.179688 2186.300781 C 1064.960938 2186.761719 1065.738281 2187.25 1066.511719 2187.710938 C 1066.941406 2187.96875 1067.371094 2188.230469 1067.800781 2188.480469"/></g><g><path fill="#c5c4c4" d="M 1131.679688 2221.589844 C 1130.808594 2221.199219 1129.929688 2220.789062 1129.050781 2220.378906 C 1129.75 2220.710938 1130.488281 2221.058594 1131.191406 2221.378906 C 1131.351562 2221.449219 1131.511719 2221.519531 1131.679688 2221.589844"/></g><g><path fill="#8f8b8c" d="M 724.078125 2160.578125 C 804.871094 2132.800781 835.371094 2033 835.371094 2033 C 835.371094 2033 845.777344 1431.050781 834.769531 1357.078125 C 833.984375 1351.75 832.511719 1346.519531 830.585938 1341.421875 C 821.351562 1330.160156 796.902344 1302.25 759.011719 1272.289062 C 745.726562 1261.789062 730.617188 1251.089844 714.082031 1240.730469 C 714.253906 1240.851562 714.421875 1240.949219 714.59375 1241.070312 C 716.460938 1242.269531 718.3125 1243.46875 720.117188 1244.699219 C 720.953125 1245.25 721.753906 1245.800781 722.570312 1246.359375 C 724.367188 1247.589844 726.140625 1248.820312 727.882812 1250.050781 C 728.640625 1250.589844 729.390625 1251.128906 730.132812 1251.660156 C 731.90625 1252.941406 733.65625 1254.210938 735.367188 1255.488281 C 736.011719 1255.96875 736.648438 1256.460938 737.292969 1256.941406 C 739.109375 1258.308594 740.886719 1259.679688 742.636719 1261.058594 C 743.121094 1261.441406 743.605469 1261.828125 744.082031 1262.210938 C 746.039062 1263.761719 747.953125 1265.308594 749.820312 1266.859375 C 750.050781 1267.050781 750.28125 1267.230469 750.5 1267.421875 C 752.625 1269.199219 754.707031 1270.960938 756.726562 1272.71875 C 801.132812 1311.449219 819.390625 1346.691406 819.390625 1346.691406 L 819.390625 2013.171875 C 819.390625 2017.179688 819.160156 2021.160156 818.773438 2025.078125 C 818.644531 2026.378906 818.414062 2027.648438 818.25 2028.929688 C 817.902344 2031.550781 817.539062 2034.171875 817.03125 2036.75 C 816.742188 2038.230469 816.371094 2039.699219 816.027344 2041.171875 C 815.476562 2043.519531 814.90625 2045.859375 814.226562 2048.171875 C 813.78125 2049.691406 813.296875 2051.191406 812.800781 2052.699219 C 812.0625 2054.929688 811.265625 2057.140625 810.410156 2059.339844 C 809.835938 2060.820312 809.246094 2062.300781 808.625 2063.78125 C 807.679688 2065.988281 806.664062 2068.171875 805.605469 2070.351562 C 804.933594 2071.730469 804.28125 2073.140625 803.5625 2074.511719 C 802.363281 2076.820312 801.066406 2079.089844 799.75 2081.359375 C 799.058594 2082.539062 798.410156 2083.738281 797.6875 2084.910156 C 795.875 2087.878906 793.949219 2090.789062 791.953125 2093.671875 C 791.648438 2094.109375 791.378906 2094.570312 791.066406 2095.011719 C 788.742188 2098.308594 786.285156 2101.550781 783.738281 2104.75 C 782.875 2105.828125 781.953125 2106.878906 781.074219 2107.949219 C 779.324219 2110.070312 777.570312 2112.179688 775.734375 2114.261719 C 774.628906 2115.511719 773.46875 2116.730469 772.335938 2117.96875 C 770.632812 2119.808594 768.921875 2121.648438 767.160156 2123.460938 C 765.914062 2124.738281 764.644531 2126 763.367188 2127.261719 C 761.625 2128.980469 759.851562 2130.699219 758.054688 2132.390625 C 756.738281 2133.640625 755.402344 2134.871094 754.054688 2136.101562 C 752.207031 2137.789062 750.328125 2139.441406 748.429688 2141.078125 C 747.089844 2142.238281 745.761719 2143.410156 744.394531 2144.558594 C 742.359375 2146.28125 740.285156 2147.96875 738.203125 2149.648438 C 736.945312 2150.648438 735.703125 2151.679688 734.433594 2152.679688 C 731.804688 2154.738281 729.148438 2156.75 726.46875 2158.761719 C 725.714844 2159.320312 724.980469 2159.898438 724.230469 2160.460938 C 724.179688 2160.5 724.125 2160.539062 724.066406 2160.578125 L 724.078125 2160.578125"/></g><g><path fill="#8f8b8c" d="M 1032.980469 1242.050781 C 968.796875 1282.789062 928.878906 1328.988281 917.816406 1342.648438 C 916.332031 1347.339844 915.238281 1352.148438 914.628906 1357.078125 C 904.816406 1436.601562 912.929688 2048.539062 912.929688 2048.539062 C 912.929688 2048.539062 924.148438 2068.738281 966.007812 2105.210938 C 964.613281 2103.460938 963.335938 2101.660156 962.003906 2099.878906 C 960.75 2098.199219 959.433594 2096.570312 958.238281 2094.871094 C 957.128906 2093.28125 956.140625 2091.660156 955.082031 2090.050781 C 953.785156 2088.089844 952.4375 2086.140625 951.21875 2084.160156 C 950.132812 2082.359375 949.1875 2080.511719 948.164062 2078.679688 C 947.136719 2076.828125 946.027344 2075.011719 945.074219 2073.128906 C 943.941406 2070.898438 942.976562 2068.609375 941.960938 2066.339844 C 941.277344 2064.808594 940.496094 2063.320312 939.863281 2061.769531 C 938.777344 2059.109375 937.890625 2056.410156 936.976562 2053.710938 C 936.5625 2052.5 936.046875 2051.308594 935.675781 2050.089844 C 934.808594 2047.261719 934.144531 2044.398438 933.472656 2041.519531 C 933.199219 2040.378906 932.828125 2039.25 932.585938 2038.089844 C 931.964844 2035.070312 931.5625 2032.011719 931.160156 2028.941406 C 931.027344 2027.878906 930.785156 2026.839844 930.671875 2025.78125 C 930.238281 2021.628906 930.019531 2017.421875 930.019531 2013.171875 L 930.019531 1346.691406 C 930.019531 1346.691406 930.140625 1346.460938 930.347656 1346.070312 C 930.359375 1346.050781 930.351562 1346.050781 930.371094 1346.03125 C 930.59375 1345.609375 930.941406 1345 931.390625 1344.210938 C 931.410156 1344.179688 931.414062 1344.160156 931.433594 1344.140625 C 931.898438 1343.339844 932.480469 1342.351562 933.175781 1341.199219 C 933.199219 1341.171875 933.210938 1341.140625 933.230469 1341.121094 C 942.628906 1325.71875 973.261719 1281.140625 1033.71875 1241.761719 C 1033.769531 1241.738281 1033.808594 1241.710938 1033.851562 1241.679688 C 1033.570312 1241.789062 1033.269531 1241.921875 1032.980469 1242.050781"/></g><g><path fill="#d3d2d0" d="M 1010.398438 248.488281 C 1009.410156 246.390625 1008.410156 244.238281 1007.429688 242.230469 C 1007.429688 242.21875 1007.429688 242.21875 1007.429688 242.21875 C 1007.140625 242.191406 1006.851562 242.179688 1006.558594 242.160156 C 994.90625 241.320312 983.226562 240.589844 971.894531 240 C 971.382812 239.96875 970.875 239.949219 970.363281 239.921875 C 965.417969 239.660156 960.554688 239.429688 955.78125 239.210938 C 954.8125 239.171875 953.84375 239.121094 952.878906 239.070312 C 947.722656 238.851562 942.652344 238.640625 937.796875 238.460938 C 937.605469 238.449219 937.417969 238.441406 937.230469 238.441406 C 934.316406 238.320312 931.457031 238.230469 928.675781 238.128906 C 925.378906 238.019531 922.1875 237.921875 919.101562 237.820312 C 918.429688 237.800781 917.792969 237.78125 917.125 237.769531 C 914.867188 237.691406 912.699219 237.628906 910.582031 237.570312 C 909.863281 237.558594 909.070312 237.53125 908.367188 237.519531 C 909.742188 239.871094 911.136719 242.300781 912.566406 244.800781 C 948.277344 245.328125 981.441406 246.621094 1010.398438 248.488281"/></g><g><path fill="#d3d2d0" d="M 1156.960938 717.5 C 1157.320312 717.53125 1157.71875 717.570312 1158.089844 717.609375 C 1134.640625 576.75 1076.859375 401.238281 1028.128906 287.820312 C 1002.011719 289.839844 971.652344 291.371094 938.539062 292.230469 C 989.90625 390.25 1056.550781 544.101562 1075.828125 710.960938 C 1100.359375 712.441406 1123.03125 714.179688 1143.519531 716.140625 C 1143.550781 716.140625 1143.570312 716.148438 1143.609375 716.148438 C 1148.171875 716.589844 1152.609375 717.039062 1156.960938 717.5"/></g><g><path fill="#8f8b8c" d="M 667.945312 1213.46875 C 668.027344 1213.519531 668.109375 1213.558594 668.1875 1213.609375 C 668.101562 1213.558594 668.019531 1213.511719 667.9375 1213.460938 C 667.9375 1213.460938 667.945312 1213.460938 667.945312 1213.46875"/></g><g><path fill="#8f8b8c" d="M 823.878906 245.019531 C 824.855469 242.699219 825.800781 240.300781 826.792969 238.019531 C 826.792969 238.019531 826.796875 238.019531 826.796875 238.011719 C 825.316406 238.070312 823.742188 238.121094 822.21875 238.171875 C 821.824219 238.179688 821.421875 238.191406 821.019531 238.210938 C 818.460938 238.300781 815.855469 238.390625 813.1875 238.5 C 812.269531 238.53125 811.355469 238.570312 810.425781 238.609375 C 808.050781 238.699219 805.664062 238.800781 803.21875 238.898438 C 802 238.941406 800.761719 239 799.527344 239.050781 C 797.238281 239.148438 794.957031 239.25 792.625 239.359375 C 791.125 239.429688 789.589844 239.5 788.070312 239.578125 C 785.917969 239.679688 783.78125 239.78125 781.601562 239.890625 C 779.734375 239.980469 777.84375 240.089844 775.957031 240.191406 C 774.054688 240.28125 772.171875 240.390625 770.25 240.488281 C 766.746094 240.691406 763.226562 240.898438 759.691406 241.109375 C 758.871094 241.171875 758.054688 241.21875 757.230469 241.269531 C 753.835938 241.488281 750.441406 241.699219 747.042969 241.929688 C 745.742188 242.019531 744.449219 242.121094 743.15625 242.210938 C 740.515625 242.398438 737.875 242.589844 735.246094 242.789062 C 733.796875 242.910156 732.367188 243.019531 730.925781 243.128906 C 728.472656 243.328125 726.019531 243.519531 723.585938 243.738281 C 722.070312 243.859375 720.5625 244 719.054688 244.128906 C 716.722656 244.351562 714.394531 244.550781 712.089844 244.769531 C 710.566406 244.921875 709.058594 245.070312 707.546875 245.210938 C 705.296875 245.441406 703.054688 245.671875 700.847656 245.910156 C 699.371094 246.070312 697.914062 246.230469 696.460938 246.390625 C 694.246094 246.640625 692.0625 246.890625 689.898438 247.160156 C 688.515625 247.320312 687.144531 247.5 685.785156 247.671875 C 683.617188 247.941406 681.507812 248.230469 679.410156 248.519531 C 678.136719 248.699219 676.859375 248.871094 675.613281 249.050781 C 673.46875 249.359375 671.394531 249.691406 669.332031 250.019531 C 668.238281 250.191406 667.121094 250.371094 666.054688 250.539062 C 663.859375 250.910156 661.761719 251.289062 659.691406 251.679688 C 658.851562 251.839844 657.976562 251.988281 657.15625 252.148438 C 654.542969 252.660156 652.054688 253.191406 649.679688 253.738281 C 649.492188 253.78125 649.277344 253.820312 649.097656 253.859375 L 649.097656 253.871094 C 648.445312 255.601562 647.785156 257.410156 647.121094 259.21875 C 678.523438 252.039062 744.152344 246.660156 823.878906 245.019531"/></g><g><path fill="#8f8b8c" d="M 640.769531 276.730469 C 605.722656 374.910156 552.636719 547.621094 539.015625 724.691406 C 582.363281 717.121094 651.554688 711.171875 734.890625 707.980469 C 745.796875 576.128906 765.832031 414.25 806.289062 292.109375 C 728.84375 289.929688 666.984375 284.140625 640.769531 276.730469"/></g><g><path fill="#9a9098" d="M 874.703125 293.058594 C 896.789062 293.058594 918.167969 292.769531 938.539062 292.230469 C 971.652344 291.371094 1002.011719 289.839844 1028.128906 287.820312 C 1085.449219 283.371094 1122.269531 276.5 1122.269531 268.78125 C 1122.269531 260.28125 1077.761719 252.820312 1010.398438 248.488281 C 981.441406 246.621094 948.277344 245.328125 912.566406 244.800781 C 900.21875 244.609375 887.582031 244.511719 874.703125 244.511719 C 857.277344 244.511719 840.28125 244.691406 823.878906 245.019531 C 744.152344 246.660156 678.523438 252.039062 647.121094 259.21875 C 634.273438 262.148438 627.128906 265.390625 627.128906 268.78125 C 627.128906 271.570312 631.972656 274.230469 640.769531 276.730469 C 666.984375 284.140625 728.84375 289.929688 806.289062 292.109375 C 828.027344 292.710938 850.964844 293.058594 874.703125 293.058594"/></g><g><path fill="#f1eeee" d="M 1241.058594 741.039062 C 1232.039062 740.269531 1196.339844 750.398438 1144.671875 755.601562 C 1105.960938 759.5 835.371094 776.410156 835.371094 776.410156 C 962.28125 785.421875 1181.148438 765.941406 1242.101562 752.128906 C 1254.121094 749.410156 1241.058594 741.039062 1241.058594 741.039062"/></g><g><path fill="#f1eeee" d="M 795.152344 772.601562 C 792.863281 772.171875 789.835938 771.761719 786.414062 771.378906 C 768.089844 769.371094 736.832031 768.359375 727.191406 769.820312 C 715.746094 771.558594 672.753906 772.601562 672.753906 772.601562 C 675.617188 772.691406 681.152344 772.871094 688.4375 773.089844 C 729.558594 774.339844 827.394531 777.109375 827.394531 777.109375 C 827.394531 777.109375 809.710938 775.378906 795.152344 772.601562"/></g><g><path fill="#f1eeee" d="M 732.042969 726.480469 C 732.042969 726.480469 580.367188 725.050781 566.304688 741 C 561.476562 746.46875 829.824219 731.328125 732.042969 726.480469"/></g><g><path fill="#ebece9" d="M 888.875 2019.121094 C 886.867188 1977.371094 888.875 1390.839844 888.875 1390.839844 C 888.875 1390.839844 863.808594 1356.160156 861.03125 1390.839844 C 855.140625 1464.46875 856.765625 2004.289062 855.613281 2030.21875 C 854.808594 2048.21875 890.679688 2056.578125 888.875 2019.121094"/></g><g><path fill="#ebece9" d="M 872.273438 2143.960938 C 859.011719 2142.109375 841.148438 2132.871094 839.824219 2119.921875 C 838.496094 2106.96875 928.066406 2110.671875 941.011719 2105.210938 C 953.957031 2099.761719 909.78125 2068.140625 909.78125 2068.140625 C 909.78125 2068.140625 839.824219 2068.140625 836.648438 2082.910156 C 833.46875 2097.710938 758.421875 2150.800781 767.375 2175.710938 C 785.363281 2225.699219 990.941406 2193.878906 1005.738281 2185.488281 C 1020.539062 2177.058594 985.398438 2151.359375 971.820312 2143.960938 C 958.238281 2136.570312 885.539062 2145.800781 872.273438 2143.960938"/></g><g><path fill="#8f8b8c" d="M 1180.878906 2241.730469 C 1180.71875 2241.679688 1180.578125 2241.621094 1180.421875 2241.570312 C 1180.390625 2241.550781 1180.371094 2241.550781 1180.339844 2241.539062 C 1180.539062 2241.601562 1180.691406 2241.660156 1180.878906 2241.730469"/></g><g><path fill="#8f8b8c" d="M 1033.851562 2192.75 C 1022.378906 2210.53125 811.3125 2219.351562 694.933594 2192.75 L 650.867188 2221.871094 C 650.867188 2221.871094 833.757812 2253.550781 1068.621094 2221.871094 C 1068.621094 2221.871094 1159.230469 2245.660156 1148.128906 2258.609375 C 1137.039062 2271.558594 769.761719 2290.039062 573.371094 2258.609375 C 573.371094 2258.609375 551.539062 2276.589844 573.371094 2275.929688 C 595.199219 2275.25 974.304688 2309.941406 1185.121094 2275.941406 C 1185.121094 2275.941406 1195.308594 2291.890625 1168.949219 2301.140625 C 1142.980469 2310.25 770.527344 2351.539062 528.988281 2297.121094 L 528.988281 2304.601562 C 618.871094 2335.429688 874.703125 2335.429688 874.703125 2335.429688 C 874.703125 2335.429688 1075.730469 2335.429688 1183.988281 2313.941406 C 1192.230469 2308.851562 1200.519531 2302.480469 1200.839844 2294.601562 C 1201.46875 2278.820312 1200.839844 2275.710938 1189.75 2266.28125 C 1178.640625 2256.839844 1167.550781 2270.171875 1157.839844 2266.28125 C 1148.128906 2262.378906 1166.171875 2254.910156 1157.839844 2247.25 C 1149.519531 2239.601562 1098.28125 2225.410156 1071.921875 2217.640625 C 1045.570312 2209.859375 926.246094 2228.140625 902.640625 2227.859375 C 874.703125 2227.550781 859.640625 2229.949219 855.59375 2221.871094 C 851.554688 2213.789062 874.703125 2214.75 874.703125 2214.75 C 902.246094 2213.398438 1021.921875 2213.308594 1039.378906 2199.128906 C 1047.140625 2192.839844 1046.910156 2182.878906 1044.261719 2173.769531 C 1041.75 2172.109375 1039.25 2170.410156 1036.75 2168.691406 C 1036.121094 2168.261719 1035.5 2167.808594 1034.871094 2167.378906 C 1031.601562 2165.101562 1028.351562 2162.800781 1025.128906 2160.421875 C 1033.121094 2173.460938 1038.179688 2186.019531 1033.851562 2192.75"/></g><g><path fill="#8f8b8c" d="M 1142.191406 2226.28125 C 1141.890625 2226.148438 1141.589844 2226.019531 1141.300781 2225.890625 C 1141.089844 2225.800781 1140.890625 2225.710938 1140.671875 2225.621094 C 1141.191406 2225.839844 1141.679688 2226.050781 1142.191406 2226.28125"/></g><g><path fill="#ebece9" d="M 855.59375 2264.160156 C 932.921875 2268.789062 1054.738281 2266.019531 1068.621094 2254 C 1082.480469 2241.960938 1048.269531 2233.648438 1048.269531 2233.648438 C 1034.929688 2228.96875 913.269531 2250.289062 879.984375 2249.910156 C 846.695312 2249.539062 707.074219 2234.570312 688.585938 2233.648438 C 670.089844 2232.71875 655.300781 2238.269531 667.324219 2249.960938 C 679.339844 2261.648438 778.28125 2259.539062 855.59375 2264.160156"/></g><g><path fill="#ebece9" d="M 1026.078125 2313.171875 C 1042.769531 2307.480469 1039.03125 2298.359375 1039.03125 2298.359375 C 1039.769531 2291.949219 990.941406 2299.300781 971.820312 2301.351562 C 952.691406 2303.398438 864.269531 2305.769531 795.839844 2301.519531 C 727.421875 2297.28125 607.210938 2282.660156 593.492188 2285.429688 C 579.769531 2288.199219 589.648438 2298.359375 589.648438 2298.359375 C 708.007812 2323.339844 1009.378906 2318.859375 1026.078125 2313.171875"/></g><g><path fill="#474043" d="M 1039.378906 2199.128906 C 1021.921875 2213.308594 902.246094 2213.398438 874.703125 2214.75 C 874.703125 2214.75 851.554688 2213.789062 855.59375 2221.871094 C 859.640625 2229.949219 874.703125 2227.550781 902.640625 2227.859375 C 926.246094 2228.140625 1045.570312 2209.859375 1071.921875 2217.640625 C 1098.28125 2225.410156 1149.519531 2239.601562 1157.839844 2247.25 C 1166.171875 2254.910156 1148.128906 2262.378906 1157.839844 2266.28125 C 1167.550781 2270.171875 1178.640625 2256.839844 1189.75 2266.28125 C 1200.839844 2275.710938 1201.46875 2278.820312 1200.839844 2294.601562 C 1200.519531 2302.480469 1192.230469 2308.851562 1183.988281 2313.941406 C 1187.441406 2313.261719 1190.800781 2312.550781 1194.050781 2311.820312 C 1194.070312 2311.808594 1194.101562 2311.800781 1194.128906 2311.800781 C 1197.300781 2311.089844 1200.359375 2310.359375 1203.308594 2309.609375 C 1203.511719 2309.558594 1203.710938 2309.511719 1203.898438 2309.460938 C 1206.75 2308.730469 1209.5 2307.980469 1212.128906 2307.210938 C 1212.371094 2307.140625 1212.589844 2307.070312 1212.820312 2307.011719 C 1215.460938 2306.21875 1218.011719 2305.421875 1220.421875 2304.601562 L 1220.421875 2273.960938 C 1220.421875 2273.960938 1208.890625 2251.289062 1183.539062 2242.660156 C 1182.820312 2242.421875 1181.890625 2242.089844 1180.878906 2241.730469 C 1180.691406 2241.660156 1180.539062 2241.601562 1180.339844 2241.539062 C 1179.820312 2241.359375 1179.160156 2241.109375 1178.558594 2240.890625 C 1178.019531 2240.691406 1177.53125 2240.519531 1176.941406 2240.300781 C 1176.648438 2240.199219 1176.371094 2240.101562 1176.070312 2240 C 1176.039062 2239.980469 1175.988281 2239.960938 1175.941406 2239.941406 C 1174.941406 2239.570312 1173.808594 2239.140625 1172.679688 2238.710938 C 1172.339844 2238.578125 1172.050781 2238.480469 1171.710938 2238.351562 C 1171.410156 2238.238281 1171.101562 2238.121094 1170.789062 2238 C 1170.691406 2237.960938 1170.589844 2237.929688 1170.5 2237.890625 C 1169.589844 2237.539062 1168.578125 2237.148438 1167.601562 2236.769531 C 1166.851562 2236.480469 1166.160156 2236.210938 1165.359375 2235.898438 C 1165.179688 2235.820312 1164.980469 2235.738281 1164.789062 2235.671875 C 1164.589844 2235.589844 1164.390625 2235.5 1164.191406 2235.429688 C 1163.371094 2235.121094 1162.480469 2234.75 1161.628906 2234.398438 C 1160.46875 2233.949219 1159.378906 2233.511719 1158.171875 2233.019531 C 1158.128906 2233 1158.101562 2233 1158.058594 2232.980469 C 1157.800781 2232.871094 1157.53125 2232.761719 1157.269531 2232.648438 C 1156.441406 2232.320312 1155.53125 2231.929688 1154.660156 2231.570312 C 1153.359375 2231.039062 1152.089844 2230.511719 1150.71875 2229.929688 C 1150.460938 2229.828125 1150.191406 2229.710938 1149.929688 2229.601562 C 1149.808594 2229.550781 1149.699219 2229.511719 1149.589844 2229.460938 C 1148.738281 2229.101562 1147.808594 2228.699219 1146.941406 2228.320312 C 1145.371094 2227.648438 1143.820312 2226.980469 1142.191406 2226.28125 C 1141.679688 2226.050781 1141.191406 2225.839844 1140.671875 2225.621094 C 1139.941406 2225.300781 1139.160156 2224.941406 1138.421875 2224.609375 C 1136.550781 2223.789062 1134.699219 2222.96875 1132.761719 2222.089844 C 1132.390625 2221.929688 1132.039062 2221.761719 1131.679688 2221.589844 C 1131.511719 2221.519531 1131.351562 2221.449219 1131.191406 2221.378906 C 1130.488281 2221.058594 1129.75 2220.710938 1129.050781 2220.378906 C 1126.960938 2219.421875 1124.871094 2218.460938 1122.710938 2217.449219 C 1122.699219 2217.441406 1122.679688 2217.441406 1122.660156 2217.429688 C 1122.628906 2217.398438 1122.578125 2217.390625 1122.539062 2217.371094 C 1122.128906 2217.171875 1121.699219 2216.96875 1121.289062 2216.78125 C 1120.601562 2216.449219 1119.859375 2216.089844 1119.171875 2215.75 C 1116.949219 2214.679688 1114.71875 2213.628906 1112.449219 2212.511719 C 1112.28125 2212.429688 1112.128906 2212.359375 1111.949219 2212.269531 C 1111.75 2212.179688 1111.550781 2212.070312 1111.339844 2211.96875 C 1110.519531 2211.558594 1109.648438 2211.121094 1108.808594 2210.699219 C 1106.488281 2209.539062 1104.160156 2208.390625 1101.78125 2207.160156 C 1101.679688 2207.121094 1101.589844 2207.058594 1101.480469 2207.011719 C 1101.28125 2206.910156 1101.078125 2206.820312 1100.878906 2206.710938 C 1099.949219 2206.230469 1098.988281 2205.710938 1098.058594 2205.230469 C 1095.660156 2203.980469 1093.261719 2202.730469 1090.820312 2201.429688 C 1090.808594 2201.421875 1090.800781 2201.410156 1090.789062 2201.410156 C 1090.359375 2201.179688 1089.949219 2200.949219 1089.519531 2200.71875 C 1088.671875 2200.269531 1087.800781 2199.789062 1086.949219 2199.320312 C 1084.519531 2197.988281 1082.089844 2196.660156 1079.628906 2195.289062 C 1079.578125 2195.261719 1079.519531 2195.238281 1079.480469 2195.210938 C 1078.980469 2194.929688 1078.488281 2194.648438 1078 2194.371094 C 1077.21875 2193.929688 1076.429688 2193.460938 1075.648438 2193.011719 C 1073.199219 2191.609375 1070.738281 2190.210938 1068.269531 2188.761719 C 1068.109375 2188.660156 1067.960938 2188.578125 1067.800781 2188.480469 C 1067.371094 2188.230469 1066.941406 2187.96875 1066.511719 2187.710938 C 1065.738281 2187.25 1064.960938 2186.761719 1064.179688 2186.300781 C 1061.761719 2184.839844 1059.320312 2183.371094 1056.890625 2181.851562 C 1056.558594 2181.648438 1056.25 2181.480469 1055.929688 2181.269531 C 1055.738281 2181.160156 1055.550781 2181.03125 1055.371094 2180.910156 C 1054.460938 2180.351562 1053.550781 2179.738281 1052.648438 2179.160156 C 1050.261719 2177.648438 1047.871094 2176.121094 1045.480469 2174.550781 C 1045.078125 2174.289062 1044.660156 2174.039062 1044.261719 2173.769531 C 1046.910156 2182.878906 1047.140625 2192.839844 1039.378906 2199.128906"/></g></g></svg>